<?xml version="1.0" encoding="utf-8"?>
<!-- Generator: Adobe Illustrator 21.1.0, SVG Export Plug-In . SVG Version: 6.00 Build 0)  -->
<svg version="1.1" id="Layer_1" xmlns="http://www.w3.org/2000/svg" xmlns:xlink="http://www.w3.org/1999/xlink" x="0px" y="0px"
	 viewBox="0 0 793.2 514" style="enable-background:new 0 0 793.2 514;" xml:space="preserve">
<style type="text/css">
	.st0{fill:#FFFFFF;}
</style>
<g>
	<path class="st0" d="M0,44.4c11.2,0,22.1,0,33.2,0c0-2.7,0-5.3,0-8.2c-4.5,0-8.9,0-13.5,0c0-5.5,0-10.8,0-16.1c5.3,0,10.5,0,15.9,0
		c0,4.5,0,9,0,13.7c2.7,0,5.3,0,8.1,0c0-11.2,0-22.4,0-33.8C279,0,514,0,749.4,0c0,11.2,0,22.4,0,33.8c2.8,0,5.3,0,8.2,0
		c0-4.6,0-9.1,0-13.7c5.4,0,10.6,0,15.9,0c0,5.3,0,10.6,0,16.1c-4.5,0-8.9,0-13.5,0c0,2.8,0,5.3,0,8.2c11,0,22,0,33.2,0
		c0,141.8,0,283.3,0,425.1c-11,0-22,0-33.2,0c0,2.8,0,5.4,0,8.3c4.4,0,8.9,0,13.5,0c0,5.5,0,10.7,0,16.2c-5.2,0-10.4,0-15.9,0
		c0-4.6,0-9.1,0-13.8c-2.8,0-5.2,0-8,0c0,11.3,0,22.5,0,33.9c-235.3,0-470.4,0-705.7,0c0-11.2,0-22.4,0-33.8c-2.8,0-5.3,0-8.1,0
		c0,4.5,0,9,0,13.7c-5.4,0-10.6,0-16,0c0-5.2,0-10.4,0-16c4.5,0,8.9,0,13.5,0c0-2.9,0-5.4,0-8.3c-11,0-22,0-33.2,0
		C0,327.8,0,186.3,0,44.4z M737,12.6c-227.1,0-453.8,0-680.9,0c0,7.8,0,15.6,0,23.6c-3.6,0-6.8,0-10.4,0c0,3.6,0,6.9,0,10.4
		c-2.8,0-5.4,0.1-8,0c-1.7-0.1-2.2,0.5-2.1,2.2c0.1,2.7,0,5.4,0,8.3c-8,0-15.5,0-23.1,0c0,133.4,0,266.6,0,399.9
		c7.8,0,15.3,0,23.2,0c0,3.5,0,6.8,0,10.3c3.5,0,6.7,0,10.2,0c0,3.6,0,6.9,0,10.5c3.5,0,6.8,0,10.4,0c0,8.1,0,15.8,0,23.5
		c227.1,0,453.9,0,680.9,0c0-7.9,0-15.6,0-23.6c3.5,0,6.7,0,10.2,0c0-3.6,0-6.8,0-10.4c3.5,0,6.7,0,10.2,0c0-3.6,0-6.9,0-10.4
		c7.9,0,15.5,0,23.2,0c0-133.4,0-266.5,0-399.9c-7.8,0-15.4,0-23.2,0c0-3-0.1-5.6,0-8.3c0.1-1.6-0.5-2.2-2.1-2.1
		c-2.6,0.1-5.3,0-8.2,0c0-3.6,0-6.9,0-10.5c-3.5,0-6.7,0-10.2,0C737,28.1,737,20.4,737,12.6z M53.9,10.5c228.6,0,457,0,685.6,0
		c0,7.9,0,15.6,0,23.3c2.7,0,5.2,0,7.7,0c0-10.6,0-21.2,0-31.7c-233.8,0-467.4,0-701.1,0c0,10.6,0,21.1,0,31.6c2.7,0,5.2,0,7.9,0
		C53.9,26,53.9,18.4,53.9,10.5z M739.3,503.6c-228.6,0-457,0-685.5,0c0-7.9,0-15.6,0-23.4c-2.7,0-5.3,0-7.8,0c0,10.6,0,21.1,0,31.6
		c233.8,0,467.5,0,701.2,0c0-10.6,0-21.1,0-31.6c-2.7,0-5.2,0-7.8,0C739.3,488,739.3,495.6,739.3,503.6z M33.3,46.6
		c-1,0-1.9,0-2.8,0c-8.4,0-16.8,0.1-25.2-0.1c-2.5,0-3.2,0.6-3.2,3.2c0,138.2-0.1,276.5,0,414.7c0,0.9,0.1,1.8,0.1,2.8
		c10.5,0,20.8,0,31.1,0c0-2.7,0-5.3,0-8.1c-7.7,0-15.3,0-23,0c0-134.8,0-269.4,0-404.2c7.8,0,15.4,0,23,0
		C33.3,52,33.3,49.4,33.3,46.6z M783,54.8c0,134.9,0,269.4,0,404.3c-7.8,0-15.4,0-23,0c0,2.9,0,5.4,0,8c10.4,0,20.7,0,31.2,0
		c0-1.4,0-2.7,0-3.9c0-130.9,0-261.8,0-392.7c0-7.2-0.1-14.3,0-21.5c0-2-0.6-2.5-2.6-2.5c-8.8,0.1-17.7,0-26.5,0
		c-0.7,0-1.4,0.1-2.2,0.1c0,2.8,0,5.3,0,8.1C767.6,54.8,775.2,54.8,783,54.8z M760,480.1c0,4,0,7.8,0,11.6c3.9,0,7.5,0,11.2,0
		c0-4,0-7.8,0-11.6C767.4,480.1,763.8,480.1,760,480.1z M33.3,480.2c-4,0-7.6,0-11.3,0c0,4,0,7.8,0,11.6c3.9,0,7.6,0,11.3,0
		C33.3,487.8,33.3,484.1,33.3,480.2z M22,33.8c4,0,7.7,0,11.2,0c0-4,0-7.8,0-11.6c-3.8,0-7.5,0-11.2,0C22,26.1,22,29.9,22,33.8z
		 M771.3,22.3c-4,0-7.6,0-11.3,0c0,4,0,7.8,0,11.5c3.9,0,7.6,0,11.3,0C771.3,29.9,771.3,26.1,771.3,22.3z M43.5,36.4
		c-2.7,0-5.2,0-7.7,0c0,2.7,0,5.3,0,7.9c2.6,0,5.1,0,7.7,0C43.5,41.6,43.5,39.1,43.5,36.4z M749.6,36.3c0,2.8,0,5.3,0,7.9
		c2.7,0,5.2,0,7.7,0c0-2.7,0-5.3,0-7.9C754.7,36.3,752.3,36.3,749.6,36.3z M43.7,469.6c-2.8,0-5.2,0-8,0c0,2.4-0.6,5,0.2,7
		c0.9,2.6,3.8,0.7,5.7,1.1c0.6,0.1,2-0.7,2-1.3C43.8,474.2,43.7,472,43.7,469.6z M749.5,469.6c0,2.4-0.1,4.6,0.1,6.7
		c0,0.5,0.8,1.3,1.2,1.4c2.1,0.1,4.3,0.1,6.5,0.1c0-2.9,0-5.5,0-8.2C754.7,469.6,752.3,469.6,749.5,469.6z"/>
</g>
</svg>
