<?xml version="1.0" encoding="utf-8"?>
<!-- Generator: Adobe Illustrator 16.0.0, SVG Export Plug-In . SVG Version: 6.00 Build 0)  -->
<!DOCTYPE svg PUBLIC "-//W3C//DTD SVG 1.1//EN" "http://www.w3.org/Graphics/SVG/1.1/DTD/svg11.dtd">
<svg version="1.1" id="Layer_2" xmlns="http://www.w3.org/2000/svg" xmlns:xlink="http://www.w3.org/1999/xlink" x="0px" y="0px"
	 width="75px" height="75px" viewBox="131.709 18 75 75" enable-background="new 131.709 18 75 75" xml:space="preserve">
<g>
	<path d="M190.497,44.045v-8.764h6.718v-8.199h-8.032v6.883h-9.174V22.494h-4.711h-16.426h-1.022v11.555h-8.764v-6.72h-8.195v8.035
		h6.881v9.174h-11.47v0.532h-0.001v21.144h11.471v9.174h-6.881v8.034h8.195v-6.718h8.764v11.553h5.202h12.246h5.203V76.703h8.765
		v6.718h8.192v-8.034h-6.88v-9.174h11.47v-4.711V45.069v-1.024H190.497z M190.497,28.399h5.402v5.567h-5.402V28.399z
		 M147.772,82.107h-5.566v-5.404h5.566V82.107z M142.206,34.049v-5.405h5.566v5.405H142.206z M196.145,76.703v5.404h-5.566v-5.404
		H196.145z M200.73,64.898h-11.465v10.489h-10.079v11.554h-3.889h-12.246h-3.888V75.387h-10.078V64.898h-11.467V45.854h11.467
		v-10.49h10.078V23.809h16.134h3.396v11.473h10.488V45.36h11.548v16.142V64.898z"/>
	<path d="M186.346,38.424V18h-34.272v20.424h-20.364v34.15h20.364V93h34.272V72.575h20.363v-34.15H186.346z M205.215,71.107h-20.366
		v20.427h-31.281V71.107h-20.365V39.893h20.366V19.466h31.279v20.427h20.364L205.215,71.107z"/>
</g>
</svg>
