<?xml version="1.0" encoding="utf-8"?>
<!-- Generator: Adobe Illustrator 16.0.0, SVG Export Plug-In . SVG Version: 6.00 Build 0)  -->
<!DOCTYPE svg PUBLIC "-//W3C//DTD SVG 1.1//EN" "http://www.w3.org/Graphics/SVG/1.1/DTD/svg11.dtd">
<svg version="1.1" id="Layer_1" xmlns="http://www.w3.org/2000/svg" xmlns:xlink="http://www.w3.org/1999/xlink" x="0px" y="0px"
	 width="163.828px" height="213.148px" viewBox="75.275 64.723 163.828 213.148"
	 enable-background="new 75.275 64.723 163.828 213.148" xml:space="preserve">
<g id="logo-icon">
	<g id="demon">
		<path fill="#FFFFFF" d="M183.309,263.413c-0.608,0.521-1.217,1.216-1.91,1.563c-0.956,0.521-1.911,0.955-1.998,2.258
			c-0.087,1.041-0.607,1.302-1.562,1.129c-0.781-0.088-1.477-0.174-1.477,1.041c0,0.174-0.781,0.521-1.216,0.435
			c-0.521-0.087-1.042-0.435-1.736-0.781c0.607-1.129,1.302-2.345,1.91-3.474s1.303-2.171,1.91-3.213
			c0.174-0.348,0.087-0.868,0.174-1.303c-0.694,0.087-1.737-0.086-1.997,0.348c-1.216,1.91-2.258,3.907-3.213,5.904
			c-0.261,0.608,0,1.477,0.174,2.172c0.348,1.562,0.174,1.91-1.39,2.084c-0.868,0.086-1.649,0.086-1.91,1.215
			c-0.087,0.435-0.694,0.781-1.129,1.043c-1.823,1.128-3.647,2.257-5.645,3.299c-2.345,1.216-4.862,0.521-7.381,0.695
			c0.261-1.303-1.65-2.258,0.087-3.647c-1.389-0.261-2.431-0.435-3.647-0.694c0.868-1.563,1.563-2.953,2.431-4.429
			c-0.608-0.174-1.129-0.261-1.736-0.435c-0.261-0.087-0.608-0.434-0.608-0.694c0-0.174,0.26-0.435,0.521-0.694
			c0.173-0.174,0.347-0.262,0.608-0.348c1.476-0.348,2.084-1.303,1.736-2.779c-0.173-0.868,0.261-1.303,1.129-1.215
			c1.476,0.086,2.953,0.26,4.341,0.347c0.695,0,1.477,0,2.084-0.261c2.084-1.215,3.908-3.039,6.426-3.56
			c0.262-0.087,0.521-0.521,0.521-0.782c0.087-1.91,0.261-3.82-0.955-5.644c-1.216-1.737-2.171-3.647-3.3-5.384
			c-0.347-0.521-1.042-0.869-1.649-0.955c-1.737-0.087-1.737-0.087-2.605-1.91c0.348-0.088,0.695-0.088,0.955-0.261
			c0.348-0.174,0.781-0.435,0.869-0.694c0.086-0.435-0.088-1.129-0.348-1.303c-1.39-0.781-1.39-1.737-0.869-3.127
			c0.695-1.91,0.174-2.865-1.476-4.08c-1.042-0.869-2.171-1.824-2.778-2.953c-1.39-2.344-3.3-4.342-3.908-7.12
			c-0.087-0.348-0.955-0.608-1.476-0.608c-0.26,0-0.782,0.521-0.868,0.869c-0.695,2.344-1.39,4.688-1.998,7.12
			c-0.173,0.521-0.086,1.129-0.173,1.649c-0.521,2.865-1.216,5.645-1.563,8.51c-0.174,1.65-1.563,3.127-0.956,4.95
			c0.261,0.694-0.347,1.302-1.302,1.39c-1.39,0.086-2.518,1.823-2.084,3.213c0.087,0.26,0.26,0.521,0.521,0.694
			c1.042,0.607,1.302,1.042,1.302,2.604c-0.607-0.348-1.129-0.607-1.563-0.955c-0.694-0.521-1.302-0.607-1.997,0
			c-0.347,0.261-0.695,0.521-1.042,0.781c-1.216,0.695-1.65,0.435-1.824-0.955c-0.086-0.348-0.434-0.694-0.694-1.041
			c-0.348,0.26-0.956,0.521-1.042,0.781c0,0.521,0.173,1.129,0.521,1.562c0.347,0.521,1.129,0.781,1.389,1.216
			c1.65,2.431,4.081,2.952,6.687,1.563c1.389-0.782,2.952-1.043,4.428-0.174c0.348,0.174,0.608,1.129,0.434,1.303
			c-1.302,1.215-2.778,2.258-4.168,3.299c-0.087,0.088-0.434,0-0.781-0.086c0.868-0.869,1.563-1.65,2.344-2.346
			c-0.086-0.173-0.173-0.26-0.26-0.434c-0.348,0-0.782-0.087-1.042,0c-1.65,0.434-3.387,0.868-5.037,1.303
			c-0.26,0.087-0.608,0.26-0.608,0.348c0,1.476-1.215,1.389-2.171,1.562c-2.257,0.521-4.168,1.65-5.557,3.561
			c-0.434,0.607-0.955,1.215-1.563,1.91c0.434,0.174,0.955,0.26,1.302,0.521c0.348,0.26,0.695,0.781,0.608,1.129
			c0,0.26-0.608,0.693-0.955,0.781c-0.695,0.174-1.39,0.086-2.084,0.174c-0.521,0.086-0.955,0.434-1.476,0.434
			c-0.695,0.087-1.39,0.087-1.998-0.087c-2.171-0.781-4.342-0.347-6.512,0c-0.695,0.087-1.042,0.435-1.042,1.216
			c0,0.434-0.521,1.216-0.868,1.303c-1.476,0.26-3.039,0.348-4.602,0.348c-0.348,0-0.608-0.435-0.956-0.695
			c0.348-0.174,0.608-0.434,1.042-0.607c0.521-0.174,1.042-0.261,1.476-0.608c-1.65-1.302-2.605,0.694-4.168,0.694
			c0-1.649-1.129-3.299,0.521-4.949c0.347-0.348,0.26-1.303,0.26-1.91c-0.087-1.91,0.347-2.432,2.258-2.865
			c0.695-0.174,1.476-0.087,2.171-0.348c0.608-0.174,1.216-0.607,1.823-0.868c-0.173-0.348-0.26-0.521-0.26-0.521
			c-1.476,0-1.476-0.782-1.129-1.998c0.26-0.781,0.087-1.997,0.608-2.344c0.521-0.435,1.65-0.174,2.518-0.262
			c0.782-0.086,1.476-0.347,2.171-0.521c0.347,0.521,0.608,1.042,0.868,1.39c0.695-0.348,1.303-0.955,1.563-0.869
			c0.781,0.435,1.476,1.043,1.997,1.65c0.347,0.348,0,1.303,0.955,1.216c1.129-0.174,2.345-0.174,2.866-1.39
			c0.26-0.694,0.347-1.649-0.521-2.171c-0.174-0.087-0.348-0.347-0.608-0.607c0.868-0.608,1.65-1.042,2.431-1.563
			c0.782-0.521,0.955-1.129,1.042-2.084c0.174-1.823,0.261-3.734,1.129-5.297c0.695-1.389,0.347-2.258,0-3.473
			c-0.087-0.435-0.087-0.869-0.087-1.303c0.174-5.645,0.348-11.376,0.695-17.02c0.174-2.345,0.955-4.603,1.476-6.947
			c0-0.087,0.087-0.26,0.174-0.348c0.955-1.823,2.345-3.473,2.866-5.383c1.128-3.821,3.907-7.034,4.515-11.115
			c0.174-0.955,0.695-1.998,1.39-2.691c0.607-0.695,1.649-1.043,2.778-1.737c-0.521-0.435-0.955-1.042-1.476-1.216
			c-1.129-0.26-1.737,0.261-2.258,1.39c-1.215,2.431-2.778,4.776-4.081,7.207c-0.434,0.868-0.608,1.823-0.955,2.866
			c-0.955-0.521-1.477-1.129-1.042-2.172c0.955-2.432,0.521-4.862-0.174-7.294c-0.868-3.3-0.608-6.599-0.347-9.985
			c0.086-1.477,0.434-2.866,0.694-4.342c0-0.261,0-0.521,0.174-0.781c1.91-2.866,1.737-6.253,2.171-9.466
			c0.434-2.952,1.042-5.817,1.997-8.683c0.782-2.258,1.042-4.604,1.476-6.947c0.261-1.216-0.347-1.736-1.563-1.562
			c-0.607,0.086-1.302,0.26-1.91,0.521c-1.216,0.521-2.431,1.042-3.474,1.736c-2.952,1.997-6.165,2.866-9.639,3.213
			c-0.434,0-1.042,0-1.302-0.261c-0.608-0.694-1.303-0.607-2.171-0.521c-0.695,0.087-1.389,0.087-2.084-0.087
			c-2.258-0.695-4.689-1.129-6.687-2.345c-2.171-1.302-4.341-0.694-6.512-0.781c-0.261,0-0.782,0.347-0.869,0.608
			c-0.521,1.562-1.737,2.344-2.865,3.213c-0.348,0.26-1.042,0.26-1.563,0.26c-1.736-0.087-3.126,0.174-4.515,1.39
			c-2.171,1.91-4.863,3.039-7.815,3.213c-0.261,0-0.608,0-0.782,0.173c-1.389,1.129-2.779,0.521-4.168,0.088
			c-2.953-1.043-5.645-2.519-8.076-4.603c-0.955-0.868-1.476-1.823-1.563-3.04c-0.087-1.562-0.087-3.125-0.174-4.688
			c-0.087-1.302,0.348-2.084,1.737-2.171c0.347,0,0.608-0.173,0.955-0.26c0.087,0.087,0.174,0.26,0.261,0.347
			c-0.435,0.434-0.869,1.042-1.39,1.303c-0.868,0.434-1.042,1.042-0.868,1.91c0.347,1.303,0.347,2.866,0.955,3.995
			c0.608,1.128,1.737,1.996,2.866,2.691c1.563,1.129,1.563,0.955,2.865-0.521c0.608-0.694,1.65-1.042,2.519-1.477
			c0.087,0.088,0.173,0.262,0.26,0.348c-0.434,0.348-0.868,0.695-1.389,1.043c0.781,0.781,2.518,0.347,2.431,1.996
			c1.65,0,1.824-0.174,1.65-1.91c-0.087-0.781-0.521-1.736-0.26-2.17c0.347-0.521,1.389-0.521,2.084-0.782
			c0.694-0.261,1.302-0.435,1.91-0.781c0.434-0.261,0.782-0.782,1.129-1.216c0.087-0.087,0.087-0.261,0.174-0.348
			c1.389-0.348,1.65-1.91,2.779-2.518c1.476-0.868,2.257-2.779,1.649-4.342c-0.173-0.434-0.694-0.955-1.128-1.042
			c-3.561-0.781-7.121-0.955-10.594,0.434c-2.257,0.869-4.515,1.563-6.773,2.345c-0.347-1.65,0.521-2.692,2.345-2.779
			c1.129-0.086,2.257-0.26,3.213-0.608c3.647-1.389,7.381-2.084,11.289-1.042c0.607,0.174,1.215,0.087,1.823,0.261
			c0.608,0.26,1.129,0.695,1.65,1.129c0.695,0.608,1.303,1.389,2.084,1.737c2.345,0.781,4.689,1.302,7.034,1.997
			c1.476,0.434,2.866,0.955,4.342,1.476c2.171,0.782,4.342,0.087,6.078-0.955c3.821-2.345,7.121-5.21,9.031-9.552
			c0.955-2.084,2.518-3.821,3.994-5.558c0.695-0.868,1.129-1.737,0.955-2.779c-0.173-1.129,0.174-1.823,1.303-2.344
			c1.042-0.435,2.258-1.042,2.084-2.605c-0.087-0.782-0.434-1.216-1.216-1.216c-0.868,0.087-1.997-0.608-2.344,0.868
			c-0.174,0.521-0.261,1.129-0.435,1.65c-0.086,0.261-0.26,0.608-0.347,0.608c-1.476,0.087-1.65,1.389-2.258,2.258
			c-0.521,0.695-1.042,0.868-1.997,0.608c-0.955-0.261-2.084-0.261-3.039,0c-0.955,0.347-1.39,0.173-1.476-0.782
			c-0.087-1.563-0.869-2.344-2.345-2.779c-1.997-0.607-2.084-0.955-1.563-2.952c0.608-2.518,0.347-2.953-2.171-3.126
			c-1.042-0.087-1.737-0.435-2.171-1.303c-0.261-0.521-0.608-0.955-0.955-1.389c-0.782-0.869-0.782-1.65-0.087-2.692
			c0.955-1.39,0.781-2.171-0.608-3.126c-0.434-0.261-0.868-0.521-1.303-0.782c-1.302-0.781-1.476-1.389-0.955-2.779
			c0.695-1.823,0.348-3.3-1.302-4.428c-1.216-0.869-2.605-1.477-3.995-2.171c-0.868-0.434-1.216-0.956-1.216-1.911
			c0.087-1.129,0-2.344,0.087-3.473c0.087-1.39-0.347-2.519-1.389-3.474c-0.608-0.521-1.216-1.129-1.824-1.65
			c-4.428-3.039-8.857-6.078-13.373-8.944c-1.997-1.302-3.734-2.605-5.036-4.602c-0.434-0.608-1.042-1.129-1.824-1.998
			c0.695,0.174,1.129,0.174,1.476,0.348c3.561,1.65,7.121,3.039,11.028,3.56c3.3,0.434,6.599,1.216,9.986,1.824
			c0.782,0.173,1.563,0.26,2.345,0.347c0.347,0.087,0.781,0,1.042,0.087c2.779,1.737,5.991,0.521,8.944,1.216
			c2.258,0.521,4.602,1.215,6.513,2.344c3.386,1.998,6.426,4.516,7.815,8.336c0.695,1.997,0.955,4.168,1.39,6.339
			c1.042,5.123,1.91,10.333,6.165,14.067c0.695,0.608,1.303,1.129,1.997,1.737c0.956,0.782,1.824,1.129,3.213,0.695
			c1.216-0.347,2.519-0.174,4.082-0.261c-0.261-0.521-0.434-0.868-0.608-1.215c-0.782-2.084-1.911-4.168-2.171-6.339
			c-0.695-4.516-1.824-9.031-1.39-13.633c0.087-1.389,0.261-2.345,1.911-2.084c0.087,0,0.174,0,0.26-0.087
			c0.087,0,0.087-0.087,0.261-0.26c-0.434-1.129-0.868-2.084-2.432-1.998c-0.434,0-1.128-0.347-1.389-0.694
			c-2.171-3.387-3.908-6.947-4.342-10.941c-0.087-0.608,0.174-1.302,0.261-1.91c0-0.956,0-1.911-0.087-2.953
			c0-0.26-0.174-0.608-0.174-0.868c0-0.695-0.087-1.65,0.869-1.824c0.955-0.173,0.868,0.782,1.215,1.39
			c0.869,1.736,1.737,3.473,2.779,5.123c0.695,1.129,1.563,2.171,2.432,3.213c0.434,0.434,1.042,0.782,1.823,1.389
			c0-0.868,0-1.302,0-1.65c-0.174-1.997-0.347-4.081-0.434-6.078c-0.261-5.645,1.91-10.247,5.992-13.98
			c0.608-0.608,2.084-0.26,3.126-0.26c0,0,0.174,0.694,0.087,0.955c-0.955,2.605-1.998,5.123-2.953,7.728
			c-0.173,0.521-0.173,1.129-0.26,1.65c-0.348,4.342-0.174,8.597,1.215,12.678c0.348,1.042,0.869,1.477,1.998,1.216
			c2.344-0.521,4.689-0.695,7.12-0.26c1.563,0.347,3.126-1.303,3.213-2.866c0.348-5.905-0.607-11.636-0.955-17.541
			c0-0.608,0.261-1.216,0.348-1.737c0.607,0.347,1.476,0.521,1.823,1.042c2.518,4.081,4.603,8.423,4.775,13.459
			c0.088,1.476,0,2.952,0,4.429c0,0.521,0.088,1.042,0.088,1.302c1.389-1.997,2.865-4.168,4.428-6.252
			c0.261-0.347,0.435-0.608,0.695-0.955c0.348-0.261,0.694-0.521,1.042-0.782c0.261,0.347,0.694,0.695,0.781,1.042
			c0.435,2.605,0.087,5.21-0.868,7.642c-0.869,2.171-1.824,4.255-2.691,6.426c-0.262,0.695-0.521,1.476-0.695,2.171
			c-0.087,0.26-0.087,0.695-0.348,0.781c-1.477,0.782-0.955,1.911-0.694,3.126c0.261-0.261,0.435-0.521,0.608-0.521
			c0.607-0.086,1.215-0.173,1.736,0c0.348,0.174,0.607,0.869,0.434,1.303c-0.434,1.91-1.041,3.734-1.649,5.558
			c-0.348,0.955-0.955,1.823-1.129,2.778c-0.435,2.258-1.91,3.908-3.3,5.645c-0.781,0.955-1.477,2.084-2.171,3.213
			c-0.435,0.695-0.261,1.216,0.694,1.302c0.695,0.087,1.39,0.261,1.998,0.608c1.996,1.042,3.907,0.435,5.817-0.087
			c1.129-0.347,1.476-1.302,1.649-2.344c0.262-1.911,0.521-3.908,0.695-5.818c0.174-3.821,1.303-7.381,2.691-10.854
			c1.043-2.692,2.519-4.863,4.342-7.034c2.172-2.518,6.687-4.515,10.16-2.171c0.607,0.434,1.042,0.174,1.215-0.434
			c0.262-1.129,1.043-1.389,1.998-1.563c1.997-0.434,4.081-0.782,6.078-1.303c1.216-0.347,2.345-0.868,3.474-1.302
			c3.647-1.216,7.12-2.692,10.073-5.124c0.694-0.607,1.302-1.389,2.084-1.997c0.607-0.521,1.303-1.042,2.084-1.389
			c0,1.997-0.174,3.821-1.39,5.297c-2.084,2.518-4.168,5.123-6.339,7.555c-1.39,1.563-1.998,3.386-1.824,5.384
			c0.088,1.302-0.521,1.997-1.476,2.605c-1.216,0.781-2.345,1.823-3.561,2.692c-1.39,1.042-1.823,2.431-1.563,4.081
			c0.174,1.563,0.348,3.126,0.695,4.603c0.261,1.042-0.174,1.823-0.868,2.257c-2.778,1.737-2.866,4.255-2.345,7.034
			c0.348,2.084-0.348,3.039-2.518,3.126c-1.043,0.087-1.65,0.521-1.998,1.477c-0.26,0.694-0.521,1.476-0.868,2.17
			c-0.608,1.303-1.476,2.519-2.952,2.692c-2.605,0.261-3.474,2.084-4.429,4.082c-0.347,0.608-0.868,1.215-1.476,1.65
			c-1.563,1.129-3.213,2.084-4.776,3.213c-0.435,0.347-0.782,1.042-0.694,1.65c0.086,1.91,0.347,3.907,0.521,5.818
			c0.261,2.344,0,4.602-0.868,6.773c-0.261,0.695-0.348,1.476-0.435,2.258c-0.087,1.129,0.348,1.823,1.303,2.605
			c2.866,2.431,5.471,4.95,8.249,7.555c0.435,0.435,0.695,0.955,0.955,1.476c0.608,1.129,1.998,1.824,3.213,1.477
			c0.261-0.087,0.435-0.607,0.608-0.955c0.261-0.348,0.607-0.695,0.955-1.129c0.261,0.348,0.521,0.607,0.781,0.955
			c0.174,0.261,0.261,0.521,0.348,0.869c0.694,1.562,0.781,1.649,2.431,1.041c0.695-0.26,1.043-0.174,1.391,0.435
			c0.26,0.435,0.521,0.868,0.781,1.39c0.26,0.434,0.434,0.868,0.694,1.389c0.347-0.086,0.608-0.174,0.781-0.26
			c1.997-1.303,4.255-2.172,6.687-2.432c0.868-0.087,1.389-0.434,1.562-1.303c0.174-0.781,0.695-1.303,1.563-1.216
			c0.347,0,0.781-0.087,1.129-0.173c4.255-1.563,8.249-0.782,12.243,0.781c0.869,0.348,1.824,0.521,2.779,0.607
			c0.434,0,1.303-0.348,1.303-0.521c0-0.781,0.607-1.822-0.521-2.258c-1.042-0.434-1.823-1.041-2.084-2.431
			c0.781,0.261,1.39,0.521,1.997,0.781c0.868,0.348,1.216,0.174,1.39-0.781c0.434-2.171,1.042-4.255,1.65-6.426
			c0.086-0.261,0.347-0.521,0.781-1.042c0.521,1.736,1.041,3.126,1.562,4.863c-1.823-0.435-1.91,0.607-2.084,1.736
			c-0.26,1.649-0.694,3.299-1.129,4.949c-0.434,1.736-0.086,2.519,1.39,3.561c0.347,0.26,0.608,0.521,1.042,0.607
			c1.562,0.261,1.823,1.303,1.65,2.692c-0.088,1.128-0.088,2.257-0.088,3.386c0.088,2.519-1.041,4.342-2.952,5.559
			c-2.604,1.562-5.384,2.778-8.075,4.168c-0.261,0.086-0.607,0.174-0.869,0.086c-3.994-1.215-8.422-1.476-11.549-4.775
			c-0.694-0.695-2.17-0.781-3.299-0.781c-1.998-0.088-3.995-1.303-4.689-3.127c-0.174-0.347-0.607-0.781-0.955-0.781
			c-1.39,0.261-1.563-0.521-1.477-1.562c0-0.261-0.087-0.521-0.174-1.043c-2.084,2.432-4.168,1.043-6.252,0.348
			c-1.129,1.216-0.955,1.998,0.695,2.605c-0.174,0.348-0.435,0.695-0.435,0.955c0,0.434,0.087,1.129,0.347,1.303
			c1.391,1.129,1.911,1.91,1.998,3.994c-1.129-0.434-2.345-0.868-3.474-1.477c-0.694-0.434-1.563-0.955-1.91-1.649
			c-1.823-3.56-5.298-4.95-8.511-6.687c-2.17-1.129-4.254-2.344-6.425-3.561c-0.174-0.086-0.348-0.347-0.435-0.607
			c-0.521-1.562-0.781-1.823-2.778-2.084c-0.087,0.869-0.174,1.65-0.261,2.865c-0.521-0.607-0.781-1.041-1.129-1.476
			c-1.129-1.39-1.823-1.303-2.779,0.173c-0.347,0.608-1.129,1.129-1.822,1.303c-1.129,0.348-1.043,1.129-0.956,1.824
			c0.087,0.26,0.956,0.521,1.39,0.521c0.868-0.088,1.736-0.348,2.779-0.608c0.607,2.778,1.215,5.644,1.822,8.423
			c0.174,0.695,0.521,1.303,0.869,1.91c1.042,1.65,2.171,3.3,3.126,5.037c1.476,2.518,1.39,5.471,1.997,8.249
			c0.434,2.171,1.129,4.255,1.65,6.426c0.174,0.694,0,1.563-0.088,2.345c-0.26,2.258-0.607,4.428-0.781,6.686
			c-0.086,1.563-0.086,3.213,0,4.776c0.174,2.345,2.692,3.994,5.297,3.474c-0.781-2.258-1.649-4.516-2.432-6.773
			c1.043-0.434,1.391-0.087,1.65,0.607c0.607,1.736,1.303,3.387,1.997,5.037c0.694,1.649,1.649,2.084,3.733,1.736
			c-0.347-0.781-0.521-1.65-0.955-2.345c-0.781-1.216-0.955-2.519-1.041-3.907c-0.174-3.213-0.348-6.426,0.694-9.552
			c0.435-1.216,0.955-2.345,1.302-3.474c0.174-0.434,0.262-0.868,0.262-1.303c0.086-2.432,1.476-3.733,3.907-3.733
			c1.042,0,2.084,0,3.126,0c-0.348-1.563-5.992-1.997-8.423-0.956c0.261-0.434,0.347-1.129,0.694-1.215
			c4.082-1.39,7.988-0.955,11.637,1.477c0.955,0.694,1.822,1.649,2.777,2.344c3.301,2.519,3.475,5.904,2.692,9.639
			c-0.347,1.477-0.694,2.953-0.694,4.429c-0.087,3.3-1.477,5.991-3.127,8.684c-0.521,0.781-1.041,1.649-1.389,2.519
			c-0.607,1.476-0.174,2.258,1.389,2.344c2.346,0.261,4.689,0.435,6.947,0.608c0.955,0.087,2.084,0.173,2.519-1.303
			c2.604,1.91,5.036,1.303,7.555,0.261c0.955-0.435,1.39-0.955,1.216-1.824c-0.608-3.039-1.216-6.165-3.561-8.422
			c-0.868-0.869-1.216-1.824-1.477-2.953c-0.521-2.865,0.088-5.471,1.216-8.076c0.521-1.129,0.608-2.431,0.956-3.646
			c0.173-0.781-0.174-1.042-0.869-1.042c-0.607,0-1.215,0.087-1.823,0c-0.694-0.174-1.39-0.521-2.084-0.781
			c0.087-0.087,0.087-0.261,0.173-0.348c1.217-0.435,2.519-0.608,3.561-1.216c1.129-0.694,2.084-1.823,3.127-2.778
			c0.26-0.261,0.607-0.521,1.041-0.608c0.174,0,0.521,0.435,0.521,0.695c0,2.952,1.477,5.384,2.865,7.814
			c0.087,0.174,0.087,0.261,0.174,0.521c-1.042,0.348-1.65,0.174-2.084-0.868c-0.348-0.956-0.695-1.997-1.824-2.345
			c-0.781-0.261-1.215-0.087-1.302,0.868c-0.174,1.39-0.521,2.692-0.868,3.995c-0.348,1.215-0.174,2.258,0.607,3.125
			c0.521,0.608,1.129,1.217,1.65,1.824c2.432,2.952,4.949,5.904,7.207,9.031c0.955,1.302,0.781,3.125,0.348,4.775
			c-0.174,0.521,0.086,1.129,0.086,1.65c-0.867,1.302-1.823,2.691-2.778,4.08c-0.435,0.695-0.955,0.955-1.476,0.174
			c-0.521-0.607-0.869-1.389-1.303-1.997c-0.174-0.261-0.695-0.435-0.955-0.347c-0.695,0.347-1.39,0.694-1.998,1.215
			c-0.781,0.781-1.562,1.303-2.691,1.217c-0.695,0-1.216,0.26-0.868,1.302c1.997-0.521,3.994-0.955,6.078-1.476
			c0.174,1.129-0.608,1.649-1.39,1.996c-3.907,1.563-7.814,2.953-12.156,2.605c-4.082-0.348-7.989-1.477-11.81-2.865
			c-0.174-0.087-0.348-0.174-0.608-0.348c0.348-1.129,1.129-0.955,1.91-0.694c1.911,0.607,3.734,1.129,5.905,1.823
			c-0.521-1.216-0.781-2.258-2.258-2.084c-0.608,0.087-1.302-0.695-1.91-1.129c-1.39-1.129-1.39-1.216-2.778-0.087
			c-2.953,2.432-6.252,2.952-9.727,1.823c-2.518-0.781-4.949-1.823-7.381-2.778c-0.174-0.087-0.347-0.174-0.434-0.261
			c-2.345-2.518-5.471-4.428-6.6-7.901c-0.607-1.997-0.868-4.169-1.215-6.339c-0.608-3.647-0.956-7.381-1.65-11.028
			c-0.435-2.432-1.216-4.862-1.91-7.208c-0.088-0.347-0.955-0.607-1.39-0.607c-0.261,0-0.868,0.607-0.868,0.955
			c0,1.91-0.521,3.647-0.955,5.385c-0.435,1.996-1.91,3.56-2.084,5.644c-0.088,1.997-0.261,3.995-0.521,5.991
			c-0.26,1.91-0.695,3.821-1.216,5.645c-0.261,1.129-0.173,2.084,0.868,2.605c1.043,0.521,1.216,1.303,0.781,2.258
			c-0.521,1.215-0.521,2.258,0.521,3.213c0.261,0.26,0.435,0.521,0.521,0.868c0.607,2.345,2.344,3.907,3.646,5.817
			c0.869,1.303,1.39,2.865,2.084,4.256c0.607,1.302,0.955,2.691,1.563,3.994c0.868,1.736,0.955,3.561,0.435,5.471
			c-0.348,1.303-0.174,2.344,0.781,3.473c0.868,1.129,1.303,2.605,1.91,3.908c0.521,0.955,0.955,1.997,1.562,2.778
			c0.521,0.782,1.217,1.649,2.084,1.91c1.737,0.608,3.301,1.649,5.385,1.649c1.389,0,2.865,0.521,4.342,0.869
			c-0.521,0.607-0.869,1.216-1.391,1.477c-0.607,0.434-1.302,1.041-2.17,0.26c-0.695-0.694-1.477-0.521-2.171,0.261
			C186,263.066,184.784,263.674,183.309,263.413c0.174-1.129,0.607-2.258,1.823-2.778c0.261-0.087,0.435-0.608,0.607-0.869
			c-0.347-0.174-0.607-0.347-0.955-0.347c-0.781,0-1.649-0.174-2.345,0.087c-0.607,0.26-1.389,0.781-1.562,1.389
			c-0.781,2.519-0.435,2.866,2.171,2.692C183.135,263.5,183.221,263.5,183.309,263.413 M140.672,123.262
			c0.087,0.782,0.173,1.563,0.26,2.345c0.087,0,0.261,0.087,0.348,0.087c0.347-0.521,0.608-1.042,0.955-1.563
			C141.714,123.87,141.193,123.609,140.672,123.262c-0.434-0.26-0.782-0.781-1.303-0.955c-1.91-0.695-3.821-1.302-5.905-1.65
			c-0.868-0.087-1.563,0.434-1.476,1.303c0.087,0.955,0.174,1.91,0.347,2.865c0.261,0.956,0,1.129-0.955,1.303
			c-0.695,0.087-1.389,0.695-1.997,1.042c-0.521,0.347-1.042,0.868-1.65,1.042c-1.303,0.434-1.65,1.476-0.695,2.518
			c0.434,0.435,0.869,0.869,1.129,1.303c0.434,0.695,0.955,0.955,1.563,0.434c0.608-0.434,1.216-1.042,1.476-1.737
			c0.435-0.955,0.608-1.997,1.042-2.952c0.173-0.348,0.694-0.782,0.955-0.695c1.215,0.261,1.823-0.26,2.084-1.302
			c0.174-0.435,0.434-0.782,0.695-1.39c0.434,0.955,0.694,1.911,1.215,2.605c0.521,0.608,1.39,0.869,2.084,1.303
			c0.087-0.782,0.261-1.65,0.174-2.431c-0.087-0.869-0.347-1.65-0.608-2.605C139.63,123.349,140.151,123.349,140.672,123.262
			 M149.616,90.873c-1.129-0.174-1.997-0.174-2.779-0.434c-0.347-0.087-0.694-0.521-0.955-0.869c-1.129-1.302-1.997-2.778-3.3-3.907
			c-0.781-0.695-1.476-0.174-1.389,0.955c0.087,0.695,0.26,1.476,0.521,2.171c0.868,1.823,1.823,3.473,2.779,5.21
			c0.087,0.261,0.434,0.521,0.694,0.521c2.432,0,4.95,1.303,7.294-0.434c0.087-0.087,0.26,0,0.347,0.087
			c0.347,1.737,0.347,1.65,2.171,1.215c1.91-0.434,3.82-0.607,5.73-0.868c0.348,0,0.869-0.087,0.956,0.174
			c0.347,0.521,0.521,1.129,0.781,1.65c0,0-0.521,0.347-0.694,0.26c-1.477-0.781-2.345-0.087-3.127,1.042
			c-0.26,0.348-0.781,0.434-1.041,0.695c-0.348,0.347-0.869,0.782-0.955,1.216c-0.262,1.563-0.435,3.039,1.302,4.081
			c0.956,0.608,0.868,1.389,0,1.997c-0.173,0.087-0.261,0.348-0.435,0.521c0.262,0.174,0.435,0.435,0.695,0.435
			c1.042,0.26,2.171,0.347,3.213,0.694c0.434,0.174,1.042,0.695,0.955,1.129c0,1.65,0.869,2.432,2.345,2.779
			c-0.868,1.476-0.868,2.952,0.087,4.342c0.174,0.26,0.521,0.521,0.781,0.521c0.955,0.087,2.865-1.824,2.953-2.692
			c0.086-0.608,0.347-1.303,0.781-1.824c0.521-0.694,1.215-1.302,1.91-1.91c0.781-0.608,0.955-1.39,0.348-2.171
			c-0.695-0.955-0.348-1.563,0.434-2.171c0.521-0.347,1.042-0.695,1.39-1.216c0.347-0.521,0.607-1.129,0.868-1.65
			c-0.087-0.086-0.174-0.173-0.348-0.347c-0.955,0.174-1.823,0.434-2.952,0.608c0.261-1.476,0.521-2.779,0.694-3.908
			c-0.781-0.087-1.562,0-1.91-0.26c-0.348-0.435-0.607-1.477-0.348-1.737c0.348-0.434,1.217-0.521,1.91-0.695
			c1.303-1.823,2.605-3.821,3.561-5.992s1.477-4.428,2.172-6.686l-0.348-0.174c-1.477,0.955-2.258,2.518-2.865,4.082
			c-0.608,1.563-1.043,3.126-1.65,4.689c-0.087,0.347-0.607,0.521-0.955,0.608c-0.087,0-0.521-0.348-0.521-0.521
			c0.174-1.477-0.607-2.432-1.389-3.561c-0.435-0.608-0.435-1.215,0.086-1.91c0.348-0.521,0.695-1.216,0.608-1.824
			c-0.087-2.431-0.347-4.863-0.608-7.207c-0.174-1.129-0.521-2.258-0.867-3.387c-0.262-0.608-0.782-1.042-1.217-1.476
			c-0.086,5.818,0.608,11.375,0,16.933c-0.086,1.129,0.174,1.911,1.217,2.605c1.302,0.869,1.302,2.692,0.26,3.561
			c-1.389-0.955-3.039-1.824-4.168-3.04c-1.477-1.65-3.126-1.302-4.863-1.128c-0.26,0-0.607,0.173-0.867,0.173
			c-2.084,0.261-4.082,0.608-6.079,0.869c-0.347-0.695-0.521-1.303-0.781-1.824c-0.261-0.608-0.608-1.216-0.695-1.824
			c-0.261-1.65-0.261-3.3-0.521-4.863c-0.087-0.434-0.521-1.128-0.869-1.128c-0.868-0.087-1.042,0.607-0.955,1.302
			c0.087,0.955,0.174,1.911,0.261,2.866C149.442,88.615,149.529,89.831,149.616,90.873 M122.958,120.223
			c1.476-0.434,1.737-0.261,1.737,1.042c0,0.347,0,0.782,0.173,1.129c0.087,0.174,0.435,0.261,0.608,0.261
			c0.087,0,0.348-0.261,0.348-0.435c-0.087-0.694-0.087-1.476-0.261-2.171c-0.26-0.955-0.608-1.823-0.868-2.778
			c-0.174-0.782-0.261-1.563-0.348-2.258c-0.173-1.129-0.434-2.171-0.608-3.3c-0.173-0.868,0.087-1.389,1.216-1.303
			c0.955,0.087,1.65-0.868,1.563-1.997c-0.087-1.216-1.129-0.695-1.736-0.781c-0.261,0-0.695,0.434-0.869,0.781
			c-0.26,0.348-0.26,0.868-0.434,1.39c-0.782-0.782-1.476-1.39-2.258-2.084c0.261-0.781,0.261-1.736,0.782-2.431
			c0.347-0.434,1.389-0.174,2.084-0.347c0.347-0.087,0.781-0.608,0.694-0.782c-0.434-1.91-0.781-3.908-1.563-5.644
			c-0.347-0.782-0.607-1.303-0.434-2.084c0.174-0.607,0.434-1.215,0.261-1.736c-0.174-0.782-0.608-1.563-1.129-2.171
			c-0.521-0.521-1.129-0.261-1.216,0.608c-0.087,0.694-0.174,1.389-0.26,1.997c-0.435-0.521-0.782-1.216-0.695-1.737
			c0.521-1.91,0.26-2.692-1.737-2.865c-1.823-0.087-3.734,0.173-5.557,0.347c-0.435,0-0.869,0.26-1.303,0.347
			c0.174,0.521,0.347,1.042,0.608,1.477c0.26,0.434,0.955,0.955,0.955,1.302c-0.26,1.563,0.608,1.65,1.737,1.476
			c0.26,0,0.521,0,1.129,0.087c-0.782,0.782-0.955,2.258-2.345,1.129c-0.174-0.174-0.608,0.087-0.955,0.087
			c-0.434,0-0.868,0.174-1.216,0c-0.608-0.261-1.042-0.695-1.563-1.129c-0.608-0.434-1.216-0.521-1.65,0.261
			c-0.781,1.736-0.087,2.691,1.824,2.865c1.65,0.087,3.3,0.174,4.863,0.434c1.476,0.261,2.778-0.781,2.778-2.257
			c0-0.261,0.261-0.608,0.435-0.956c0.087,1.216,0.173,2.171,0.26,3.04c0.869-0.348,1.65-0.695,2.518-1.042
			c0.174-0.174,0.435,0,0.521,0.347c0.348,1.129,0.608,2.258,0.956,3.3c0.347,1.476,0,2.171-1.303,2.952
			c-1.563,0.869-1.823,1.476-1.389,3.126c-0.348-0.173-0.869-0.347-0.869-0.607c-0.086-1.129,0-2.345,0-3.561
			c0.782-0.087,1.477-0.173,2.432-0.347c-0.434-0.521-0.695-1.129-1.042-1.129c-0.782-0.087-1.563,0-2.345,0.087
			c0-0.087-0.087-0.261-0.087-0.434c-0.173-0.435-0.347-1.129-0.608-1.216c-0.434-0.174-1.302,0-1.563,0.26
			c-0.26,0.261,0.087,1.042,0.174,1.563c0.087,0.26,0.261,0.434,0.347,0.694c0.869,1.65,0.435,4.429-0.694,5.905
			c-0.348,0.434-0.695,1.303-0.608,1.824c0.26,1.042,0.781,2.084,1.302,3.039c0.348,0.608,0.782,1.129,1.39,1.563
			c1.042,0.782,1.476,0.521,1.91-0.695c0.087-0.347,0.608-0.607,0.955-0.694c0.348,0,0.956,0.347,0.956,0.521
			c-0.087,1.476,0.955,2.344,1.563,3.473c0.694,1.216,0.26,1.824-1.042,2.084c-0.348,0.087-0.869,0.608-0.869,0.695
			c0.261,0.521,0.608,0.955,0.956,1.476c0.434-0.347,0.868-0.694,1.215-1.042C123.132,120.917,122.958,120.483,122.958,120.223
			 M194.943,94.259c-0.434,0.868-1.129,1.65-1.302,2.431c-0.261,1.824-0.521,3.647-0.435,5.471
			c0.174,4.168,0.607,8.336,0.955,12.591c0,0.435,0,0.869,0,1.303c-0.174,0-0.26,0.087-0.434,0.087
			c-0.174-0.261-0.435-0.521-0.521-0.869c-0.26-2.257-0.434-4.515-0.607-6.773c-0.087-0.868-0.087-1.824-0.435-2.692
			c-0.173-0.434-0.781-0.782-1.302-0.955c-0.262-0.087-0.782,0.521-0.869,0.955c-0.26,1.042-0.348,2.084-1.649,2.431
			c-0.174,0.087-0.435,0.521-0.435,0.782c0,0.174,0.435,0.521,0.607,0.521c1.303-0.261,1.391,0.695,1.65,1.563
			c0.695,2.518-0.521,5.297,1.303,7.729c-1.65,0-3.126,0.086-4.516,0c-0.955-0.087-1.389,0.173-1.303,1.215
			c0.087,0.608,0,1.303,0.174,1.911c0.261,0.868,0.695,1.65,1.216,2.344c0.174,0.261,0.955,0.435,1.303,0.261
			c0.261-0.087,0.347-0.782,0.435-1.216c0.086-0.347,0.086-0.608,0.086-0.868c0.435,1.042,0.781,2.171,1.39,3.126
			c0.261,0.434,1.303,0.955,1.649,0.781c0.695-0.434,1.129-1.215,0.521-2.084c-0.607-0.868-1.303-1.736-2.084-2.778
			c0.348-0.348,0.868-0.695,1.303-1.129c0,0.173,0,0.347,0,0.521c0.521,0.26,1.129,0.781,1.477,0.608
			c0.781-0.348,1.302-1.042,0.173-1.824c-0.261-0.174-0.261-0.782-0.435-1.216h1.391c0.173,2.345,0.26,4.603,0.434,6.86
			c0,0.521,0,1.129,0,1.65c0,1.129,0.521,1.477,1.477,0.782c1.823-1.39,2.344-3.56,3.125-5.558c0-0.087,0-0.26-0.086-0.347
			c-0.174-1.042-0.435-1.997-0.695-3.039c-0.086-0.435-0.348-0.869-0.521-1.39c-0.174,0-0.348,0.087-0.435,0.087
			c-0.174,0.782-0.434,1.563-0.521,2.345c-0.086,0.955,0.088,1.997,0,2.952c0,0.347-0.347,0.608-0.521,0.955
			c-0.173-0.347-0.521-0.694-0.521-0.955c-0.088-6.513-0.088-13.025-0.174-19.538c0-1.737-0.174-3.387-0.261-5.124
			c0-0.26,0.087-0.521,0.174-0.694C196.768,95.822,196.768,95.735,194.943,94.259 M228.896,179.617
			c1.389,0.435,2.605,1.303,3.213,2.172c0.174,0.26,0.607,0.521,0.868,0.521c3.213-0.347,5.297-3.387,4.429-6.426
			c0.955-0.521,1.389-1.997,0.695-2.519c-1.737-1.303-3.387-2.691-5.298-3.646c-1.476-0.781-3.213-1.043-4.776-1.563
			c-3.213-0.955-6.512-1.042-9.725-0.261c-0.695,0.174-1.563,0.869-1.65,1.477c-0.348,1.216,0.088,2.518,1.129,3.387
			c0.695,0.694,1.303,1.477,1.824,2.258c0.521,0.781,1.736,1.562,2.691,2.171c1.303,0.868,2.953,1.39,4.255,1.91
			c-0.087,1.129-0.174,2.084-0.087,2.952c0,0.261,0.435,0.695,0.695,0.695c0.347,0.086,0.867-0.088,1.129-0.348
			c0.434-0.348,0.781-0.869,1.215-1.477C229.33,180.834,229.156,180.398,228.896,179.617 M146.229,108.587
			c0,2.952-0.521,5.644,1.216,8.162c0.695,0.956,1.65,1.824,2.171,2.866c1.563,3.04,6.772,5.471,10.854,3.734
			c0.26-0.087,0.521-0.521,0.521-0.781c0-1.39,0.867-2.258,1.822-3.126c0.695-0.608,1.129-1.477,1.563-2.345
			c0.174-0.347,0.087-1.129-0.173-1.303c-1.303-0.955-1.65-2.084-1.563-3.56c0-0.347-0.521-0.955-0.868-1.042
			s-0.955,0.26-1.303,0.521s-0.521,0.781-0.869,1.129c-0.347,0.347-0.781,0.868-1.041,0.781c-1.736-0.26-3.734,0.261-5.21-1.302
			c-0.781-0.782-1.563-0.955-2.171,0.26c-0.087,0.261-0.26,0.435-0.434,0.608c-0.434,0.261-0.868,0.521-1.303,0.782
			c-0.347-0.521-0.694-1.042-0.868-1.65c-0.174-0.347-0.087-0.782,0-1.129C148.4,109.803,147.706,109.108,146.229,108.587
			 M197.289,211.226c0.086,1.563,0,3.213,0.26,4.776c0.174,0.867,0.869,1.736,1.39,2.518c0.694-0.434,1.476-0.781,1.997-1.303
			c2.691-2.778,4.429-6.165,5.297-9.986c0.348-1.562,0.607-3.039-0.434-4.688c-1.39-2.171-2.953-3.039-5.385-2.778
			c-0.781,0.086-1.129,0.26-1.389,1.041C197.896,204.279,197.027,207.665,197.289,211.226 M151.353,98.34
			c-0.261-0.434-0.347-0.521-0.521-0.695c-0.521-0.694-2.779-0.868-2.866-0.087c-0.174,1.129-0.955,1.39-1.823,1.477
			c-0.782,0.087-1.042,0.607-1.042,1.302c0.087,1.476,0,3.04,0,4.516c0,1.215,0.435,2.171,1.477,2.865
			c0.781,0.521,1.736,0.956,2.605,1.39c0.955,0.434,1.65,0.347,1.997-0.782c0.174-0.434,0.695-0.694,1.129-1.129
			c0.347,0.348,0.782,0.695,0.955,1.129c0.869,2.171,2.258,2.953,4.342,2.519c0.955-0.174,1.303-0.695,1.215-1.65
			c-0.086-0.956-0.607-1.129-1.389-1.129c-0.955,0.087-1.563-0.261-1.65-1.303c-0.086-1.042-0.521-1.737-1.823-1.65
			c-0.261,0-0.868-0.608-0.782-0.955c0.087-0.695-0.781-1.91,0.608-2.171c0.955-0.174,1.042-0.608,0.955-1.302
			c0-0.608,0-1.216,0-1.824c0.087-1.216-0.434-1.824-1.649-2.171C151.787,96.517,151.787,97.472,151.353,98.34 M200.588,227.203
			c-0.086-0.174-0.174-0.348-0.26-0.521c-0.348,0-0.781-0.086-1.129-0.086c-3.561,0.347-6.86-0.695-10.247-1.91
			c-1.736-0.608-2.865-1.563-4.081-3.127c-1.997-2.605-3.039-5.384-3.473-8.51c-0.348-2.691-0.262-5.471-0.436-8.249
			c-0.173-1.997-0.347-3.907-0.607-5.905c-0.26-1.649-0.694-3.213-1.129-4.775c-0.086-0.348-0.521-0.869-0.781-0.955
			c-0.521-0.087-1.042,0.086-1.562,0.174c0.086,0.521,0.174,1.041,0.347,1.562c0.261,0.695,0.782,1.303,0.868,2.084
			c0.348,2.865,0.521,5.645,0.781,8.51c0,0.174,0.088,0.435,0.174,0.607c0.869,1.129,0.695,2.432,0.695,3.734
			c0,2.084-0.174,4.342,0.26,6.339c1.391,5.731,5.645,8.944,10.594,11.202c0.695,0.348,1.737,0,2.692,0.086
			c1.997,0.088,4.081,0.174,6.079,0.262C199.807,227.811,200.24,227.463,200.588,227.203 M142.062,148.444
			c1.65,0.087,1.737,0.087,1.65-1.563c-0.087-2.171-0.608-4.429-0.521-6.6c0.087-3.126,0.174-6.339,1.737-9.204
			c0.347-0.608,0.347-1.39,0.521-2.084c0.087-0.348,0.26-0.869,0.521-1.042c1.91-1.129,2.431-3.213,3.647-4.863
			c0.174-0.261,0.261-1.042,0.087-1.129c-0.347-0.261-0.868-0.261-1.303-0.261c-0.173,0-0.26,0.608-0.347,0.955
			c-0.174,0.348-0.26,0.782-0.521,0.956c-1.216,1.129-2.431,2.344-3.734,3.386c-2.605,2.171-3.474,4.776-3.126,8.163
			c0.347,3.734,0.868,7.468-0.521,11.202C139.543,148.01,140.064,148.357,142.062,148.444 M168.72,148.792
			c-0.087,0.086-0.173,0.086-0.347,0.173c0.26,0.348,0.521,0.955,0.781,0.955c0.434,0,0.868-0.434,1.215-0.694
			c0.348-0.261,0.521-0.608,0.782-0.955c0.261-0.261,0.435-0.521,0.694-0.695c-0.348-0.087-0.694-0.347-0.955-0.347
			c-1.042,0.26-1.215-0.261-1.389-1.129c-0.695-2.692-1.477-5.384-2.258-8.076c-0.088-0.434,0-0.956,0.086-1.303
			c0.521-1.302,1.217-2.518,1.65-3.821c0.174-0.608-0.087-1.302-0.087-1.91c-0.608,0.174-1.39,0.174-1.91,0.521
			c-2.345,1.563-3.04,5.123-1.649,7.555c0.173,0.26,0.173,0.695,0.26,0.955c0.607,2.605,0.695,5.384,2.691,7.468
			C168.633,147.923,168.633,148.444,168.72,148.792 M189.734,128.819c-0.869-1.737-1.998-3.039-3.387-3.56
			c-0.435-0.174-0.955-0.174-1.477-0.261c-0.087,0.695-0.26,1.476-0.087,2.171c0.087,0.261,0.608,0.608,0.955,0.782
			c0.521,0.26,1.737-0.348,1.649,0.868c-0.086,1.216-1.215,0.608-1.822,0.781h-0.088c-1.303,0.087-1.736,0.521-1.303,1.65
			c0.174,0.348,1.129,0.435,1.65,0.608c0.348,0.174,0.695,0.348,1.042,0.434c-0.261,0.348-0.521,0.869-0.868,1.042
			c-0.607,0.434-1.477,0.607-2.084,1.042c-0.261,0.173-0.348,0.781-0.348,1.215c0,0.174,0.348,0.608,0.435,0.608
			c0.955-0.087,2.084-0.087,2.865-0.521c2.432-1.476,4.169-3.734,5.21-6.426c0.087-0.26,0.087-0.608,0.174-1.129
			C191.297,128.385,190.516,128.559,189.734,128.819 M210.487,94.78c-0.174,0.694-0.435,1.476-0.608,2.171
			c-0.086,0.434,0.174,0.781,0.262,1.215c0.521-0.173,1.302-0.26,1.476-0.694c0.261-0.608,0.435-1.477,0.261-2.084
			c-0.174-0.607-0.955-1.128-1.39-1.649c0-0.087-0.174,0-0.261,0c-1.997-0.174-2.258-0.608-1.736-2.692
			c1.389,0.434,2.691,0.868,4.081,1.302c0.087-0.087,0.174-0.26,0.261-0.347c-0.174-0.869-0.348-1.65-0.607-2.518
			c-0.608-1.65-1.737-1.998-2.866-0.608c-0.781,0.868-1.39,0.955-2.345,0.608c-0.26-0.087-0.521-0.087-0.955-0.174
			c0,1.129,0,2.258,0,3.3c0,0.434,0.261,0.868,0.174,1.215c-0.087,1.477-0.174,2.866-0.26,4.342c0,0.782,0.086,1.39,1.128,1.303
			c0.956-0.087,1.303-0.434,1.216-1.389c-0.087-0.695,0-1.477,0-2.171C208.316,94.259,208.577,94.085,210.487,94.78
			 M158.126,177.707c0.608-0.26,1.216-0.348,1.39-0.694c1.129-1.737,2.605-3.474,3.039-5.471c0.695-2.952,0.521-6.079,0.781-9.118
			c0.087-0.781-0.26-0.955-0.955-0.955c-1.042,0-1.65,0.348-1.736,1.39c-0.174,1.997-0.174,4.081-0.435,6.079
			c-0.261,1.562-0.435,3.299-1.216,4.688C158.126,174.929,158.039,176.058,158.126,177.707 M150.484,220.517
			c0.087,0.087,0.261,0.261,0.348,0.348c0.347-0.087,0.781-0.087,1.042-0.348c3.387-2.692,6.687-5.384,9.985-8.075
			c0.174-0.087,0.262-0.348,0.348-0.521c0.261-0.694,0.435-1.389,0.607-2.084c-0.173-0.087-0.26-0.26-0.434-0.348
			c-0.781,0.608-1.65,1.129-2.432,1.737c-1.562,1.216-3.213,2.431-4.775,3.733c-1.39,1.129-2.779,2.345-3.995,3.647
			C150.832,219.041,150.745,219.822,150.484,220.517 M161.339,194.987c-0.261,1.216-0.435,2.345-0.608,3.474
			c-0.086,0.434,0,0.955-0.173,1.215c-1.477,2.346-2.692,4.776-4.862,6.6c-0.521,0.435-0.869,1.217-0.869,1.911
			c-0.087,0.781-0.26,1.128-1.042,1.302c-1.042,0.261-1.736,0.869-1.823,1.998c1.997,0.521,2.344,0.348,2.952-1.39
			c0.087-0.174,0.174-0.348,0.348-0.521c1.823-1.998,3.647-4.082,5.384-6.079c1.041-1.129,1.91-2.345,1.477-4.081
			c-0.088-0.348,0.173-0.695,0.347-1.129C162.729,197.245,162.381,195.77,161.339,194.987 M204.844,106.503L204.844,106.503
			c0.086-1.737,0.086-3.561,0.086-5.297c0-0.782-0.086-1.39-1.041-1.39c-0.956,0-0.869,0.608-0.869,1.216
			c0,1.65,0.174,3.3-0.868,4.689c-0.087,0.087-0.087,0.261,0,0.347c0.261,2.258,0.608,4.429,0.868,6.687
			c0.087,0.955,0.695,0.955,1.216,0.521c0.347-0.26,0.608-0.868,0.608-1.302C204.844,110.237,204.844,108.326,204.844,106.503
			 M128.342,105.721c0.087-0.087,0.174-0.087,0.347-0.173c0-0.348,0.087-0.782,0-1.129c0-0.174-0.347-0.435-0.521-0.435
			s-0.608,0.261-0.608,0.348c0,1.823-0.521,3.821,0.695,5.297c1.129,1.389,1.65,2.952,1.476,4.515
			c-0.173,2.171,1.216,3.213,2.345,4.516c0.26,0.26,0.955,0.26,1.389,0.174c0.087,0,0.348-0.782,0.174-1.129
			c-0.868-1.824-1.737-3.647-2.605-5.558c-0.261-0.608-0.521-1.302-0.695-1.91c-0.26-0.782-0.434-1.65-0.781-2.432
			C129.21,107.197,128.689,106.503,128.342,105.721 M157.258,179.097c-0.781,0.521-1.562,0.955-2.171,1.649
			c-1.563,1.91-3.039,3.908-4.516,5.905c-0.434,0.608-0.694,1.39-0.955,2.084c-0.087,0.261,0.174,0.781,0.347,0.868
			c1.563,0.607,3.126-0.521,3.04-2.171c0-0.868-0.087-1.649,1.129-1.736c0.173,0,0.521-0.435,0.521-0.608
			c-0.087-1.215,0.694-1.649,1.563-2.17C157.691,182.049,157.952,181.094,157.258,179.097 M133.292,260.635
			c-0.261-0.174-0.608-0.608-0.956-0.695c-0.347,0-0.781,0.348-1.042,0.695c-0.347,0.26-0.521,0.607-0.868,0.955
			c-0.261,0.26-0.695,0.521-0.955,0.781c-1.216,1.824-2.345,3.646-3.474,5.471c-0.173,0.348-0.087,0.868-0.087,1.303
			c0.435,0,1.042,0.086,1.303-0.174c2.518-1.91,3.821-4.689,5.644-7.207C133.118,261.59,133.118,261.242,133.292,260.635
			 M166.896,267.929c0.174,0.087,0.348,0.173,0.521,0.261c0.781-0.781,1.562-1.563,2.17-2.432c0.348-0.521,0.608-1.303-0.348-1.736
			c-1.996-0.782-6.426,0.26-8.075,1.996c0.348,0.435,0.608,0.955,1.042,1.391c0.607,0.693,2.258,0.607,2.779,0
			c0.521-0.608,1.129-1.217,1.823-1.911C166.896,266.539,166.896,267.234,166.896,267.929 M186.261,98.167
			c-1.477,0-1.649,0.174-1.649,1.303c0,1.65,1.215,3.473-0.348,5.036c-0.174,0.174-0.088,0.695-0.088,1.042
			c0.174,1.128,1.217,1.042,1.998,1.215c0.868,0.174,0.868-0.521,0.955-1.042c0.087-0.781,0-1.563,0.087-2.344
			c0-0.348,0.261-0.869,0.521-0.956c0.695-0.26,0.695-0.608,0.435-1.215c-0.347-0.695-0.521-1.477-0.955-2.171
			C186.955,98.601,186.434,98.34,186.261,98.167 M199.199,114.752c0,0.608-0.174,1.563,0.086,2.432
			c0.088,0.521,0.695,1.042,1.129,1.476c0.348-0.434,0.869-0.868,1.043-1.389c0.174-0.695,0.174-1.563,0.174-2.345
			c-0.088-2.952-0.348-3.3-3.301-3.821c-0.26-0.087-0.781,0-0.781,0.174c-0.174,0.955-0.434,1.91-0.348,2.865
			C197.201,114.318,198.244,114.492,199.199,114.752 M102.205,89.831c-1.65-2.171-4.603-2.084-7.294-3.3
			c0.174,1.389,0.956,2.084,1.824,2.605c1.303,0.782,2.605,1.737,4.081,2.258c0.956,0.434,2.171,0.347,3.3,0.434
			c0.174,0,0.608-0.434,0.608-0.608c-0.087-0.608-0.087-1.389-0.434-1.736C104.028,89.223,103.16,89.57,102.205,89.831
			 M161.6,192.295c0.087,0,0.174,0.088,0.26,0.088c0,0.521,0,1.041,0.174,1.562c0.088,0.261,0.521,0.607,0.781,0.695
			c0.262,0,0.782-0.348,0.869-0.608c0.348-1.129,0.694-2.345,0.955-3.56c0.348-1.477,0.695-3.04,0.868-4.604
			c0.087-0.26-0.173-0.867-0.435-0.955c-1.129-0.347-1.996,0.261-2.17,1.477c-0.174,0.955-0.174,1.997-0.261,2.953
			c0,0.347-0.087,0.693-0.174,0.955C162.121,190.993,161.859,191.688,161.6,192.295 M125.303,111.626c0,1.563,0,2.953,0,4.342
			c0,0.174,0,0.521,0.173,0.608c0.869,0.955,0.869,2.171,1.042,3.386c0.087,0.435,1.042,0.695,1.563,1.042
			c0.174-0.348,0.608-0.695,0.608-1.129c-0.087-1.042-0.26-1.998-0.434-3.04s-0.521-1.997-0.608-3.039
			C127.387,112.147,127.213,111.973,125.303,111.626 M188.345,116.749c-0.174-0.434-0.174-0.694-0.348-0.781
			c-1.563-1.129-1.736-2.779-1.476-4.516c0.086-0.347,0-0.694,0-1.042c0-0.607-0.088-1.129-0.955-1.042
			c-0.608,0.087-1.477-0.173-1.477,0.956c0,1.302-0.174,2.692-0.174,3.994c0,1.129,0.434,2.171,1.736,2.431
			C186.521,116.836,187.303,116.749,188.345,116.749 M164.812,125.259c-0.087-0.869,0.174-1.737-0.869-1.477
			c-1.302,0.435-2.691,0.956-3.646,1.824c-0.434,0.434,0.174,1.91,0.348,2.952c0,0.087,0,0.174,0.086,0.261
			c0.262,0.781,0.695,0.955,1.391,0.521C163.684,128.298,164.465,126.735,164.812,125.259 M192.513,102.335c0-2.345,0-4.429,0-6.426
			c0-0.348-0.348-0.869-0.608-0.956c-0.521-0.086-1.389-0.347-1.562,0.608c-0.261,1.737-0.521,3.474-0.695,5.21
			c0,0.348,0.262,0.956,0.521,1.129C190.949,102.074,191.73,102.161,192.513,102.335 M196.854,95.214
			c0.347,0.434,0.608,1.042,0.955,1.302c0.261,0.174,1.129,0.087,1.129,0c0.347-1.302,1.042-2.171,2.431-2.431
			c0.521-0.087,0.956-0.521,1.391-0.695c0.434-0.087,0.867,0,1.302-0.087c1.216-0.26,0.694-1.302,0.694-1.997
			c0-0.087-1.041-0.521-1.129-0.347c-1.215,1.476-3.125,1.389-4.515,2.518c-0.261,0.174-0.608,0.347-0.956,0.347
			C197.289,93.651,196.941,94.172,196.854,95.214 M171.151,180.92c1.129,1.91,2.171,3.647,3.3,5.384
			c0.174,0.261,0.955,0.261,1.389,0.348c0.088-0.435,0.262-0.955,0.174-1.303c-0.521-1.216-1.129-2.431-1.736-3.647
			C173.67,180.486,172.715,180.398,171.151,180.92 M216.045,176.492c0.174-0.174,0.434-0.262,0.607-0.435
			c-0.434-0.608-0.868-1.216-1.215-1.823c0,0.174,0,0.26-0.088,0.434c-1.389,0.434-2.865,0.868-4.254,1.39
			c-0.348,0.087-0.781,0.521-0.781,0.781c0,0.347,0.26,0.782,0.607,1.042c0.434,0.434,1.041,0.695,1.562,1.042
			c0.261,0.174,0.607,0.435,0.955,0.694c0.174-0.26,0.261-0.434,0.348-0.607c0.174-0.868,0.348-1.736,0.521-2.691
			c0.174-0.869,0.781-1.129,1.476-0.608C215.871,175.971,215.958,176.23,216.045,176.492 M109.759,91.22
			c0.086-1.129-0.956-1.997-2.779-2.084c-1.39,0-1.042,1.303-1.216,1.997c-0.26,0.782,1.216,2.171,2.084,2.171
			C108.804,93.478,109.672,92.522,109.759,91.22 M181.398,116.489c0,0.608,0,1.042,0,1.389c0,0.521-0.088,1.216,0.781,1.129
			c0.781,0,1.389-0.26,1.476-1.129c0-0.521-0.261-0.955-0.261-1.476c0-0.434,0.174-0.868,0.174-1.389
			c0.087-0.521,0.261-1.129,0.174-1.563c-0.087-0.261-0.868-0.434-1.216-0.261c-0.347,0.174-0.781,0.695-0.868,1.042
			C181.398,115.1,181.484,115.881,181.398,116.489 M124.695,127.777L124.695,127.777c0-0.348,0-0.695,0-1.042
			c0-1.216-0.348-1.476-1.477-1.216c-1.476,0.348-1.823,1.824-0.607,3.387c0.347,0.521,1.042,0.694,1.563,1.042
			c0.173-0.521,0.347-1.042,0.521-1.563C124.695,128.211,124.695,127.951,124.695,127.777 M163.336,155.043
			c-2.171,0.174-3.299,1.302-3.994,2.953c-0.174,0.434-0.087,0.955-0.087,1.477c0.521,0,1.129,0.086,1.563-0.174
			C162.381,158.43,162.814,156.78,163.336,155.043 M100.555,155.651c0.26,1.39,0.521,2.778,0.781,4.168
			c1.129-0.608,2.171-1.042,3.04-1.563c0.26-0.174,0.26-0.694,0.26-1.041c0-0.262-0.347-0.521-0.521-0.608
			C103.073,156.26,102.031,155.998,100.555,155.651 M176.448,186.824c-0.608,0.782-1.303,1.391-1.216,1.737
			c0.174,1.042,0.607,2.084,1.216,3.039c0.174,0.261,1.129,0.174,1.649,0c0.174-0.087,0.261-0.955,0.088-1.39
			C177.75,189.17,177.143,188.127,176.448,186.824 M180.529,128.993c0.087-0.087,0.174-0.087,0.348-0.174
			c-0.521-0.955-0.955-2.692-1.477-2.779c-1.303-0.087-1.303,1.476-1.736,2.518c0,0.087-0.087,0.174-0.087,0.261
			c0.087,1.216,1.042,1.216,1.91,1.303C180.355,130.295,180.616,129.774,180.529,128.993 M197.81,102.248
			c0.087,0.087,0.174,0.087,0.261,0.173c0,0.261-0.087,0.434,0,0.608c0.174,0.348,0.348,0.695,0.607,0.955
			c0.174-0.26,0.434-0.607,0.607-0.868s0.174-0.695,0.262-0.781c1.91-0.261,1.215-1.737,1.476-2.866
			c0.087-0.261-0.261-0.782-0.435-0.782c-0.348,0-0.694,0.261-0.868,0.435c-0.261,0.26-0.521,0.694-0.781,1.042
			C198.591,100.945,198.244,101.553,197.81,102.248 M125.65,264.368c-1.303,0-3.647,2.345-3.3,3.213
			c0.087,0.348,1.129,0.782,1.216,0.694c0.868-0.955,1.737-1.91,2.431-2.951C126.084,265.062,125.737,264.629,125.65,264.368
			 M151.874,70.64c-1.911,0.955-2.953,6.773-1.737,8.944c0.174-0.781,0.434-1.65,0.261-2.431c-0.261-1.737,0-3.3,1.042-4.776
			C151.7,71.942,151.7,71.248,151.874,70.64 M167.33,128.385c0.521-0.087,1.563,0.26,1.477-1.042
			c-0.087-1.042-1.129-2.171-2.171-1.998c-1.302,0.261-0.694,1.39-0.781,2.171C165.594,128.559,166.463,128.472,167.33,128.385
			 M181.137,130.382c-0.607,2.258-0.26,3.039,1.824,3.647C184.264,131.598,183.829,130.729,181.137,130.382 M170.631,124.304
			c-0.088,0-0.262,0.087-0.348,0.087c0.086,1.042,0,1.997,0.174,2.953c0.086,0.434,0.781,0.781,1.215,1.129
			c0.348-0.435,0.869-0.782,1.043-1.303c0.086-0.434-0.088-1.042-0.348-1.389C171.846,125.259,171.151,124.825,170.631,124.304
			 M163.25,231.893c-0.608,0.347-1.391,0.521-1.824,1.041c-0.261,0.262,0,1.043,0.087,1.563c0.868-0.087,1.737-0.087,2.519-0.435
			c0.434-0.174,0.521-0.955,0.867-1.476C164.378,232.326,163.943,232.152,163.25,231.893 M165.854,155.043
			c0-0.347,0.087-0.608,0-0.695c-0.956-0.781-0.435-1.65-0.261-2.605c0.087-0.174,0.261-0.521,0.174-0.608
			c-0.261-0.434-0.607-0.781-1.042-1.129c-0.087-0.087-0.694,0.174-0.782,0.435C163.25,151.917,164.117,154.262,165.854,155.043
			 M141.193,231.719c2.171-0.348,2.605-1.043,2.431-3.127c0-0.26-0.26-0.781-0.434-0.781c-0.347,0-1.042,0.174-1.129,0.435
			C141.801,229.374,141.541,230.503,141.193,231.719 M127.995,99.643c0.347-2.257,0-2.952-1.737-3.039
			c-0.348,0-1.042,0.261-1.129,0.434c-0.087,0.435,0.087,1.042,0.434,1.303C126.258,98.861,127.126,99.208,127.995,99.643
			 M176.795,126.041c-0.434-0.434-0.693-1.042-1.129-1.129c-0.955-0.26-1.129,0.521-1.215,1.216c0,0.608,0.086,1.303,0.26,1.91
			c0.174,0.695,0.782,0.782,1.129,0.261C176.188,127.69,176.361,126.996,176.795,126.041 M199.025,106.242
			c-0.174,0.087-0.348,0.174-0.521,0.174c-0.086,0.955-0.174,1.91-0.26,2.865c0.521,0,1.041,0.174,1.476-0.086
			c0.521-0.261,0.868-0.869,1.303-1.303C200.414,107.371,199.72,106.85,199.025,106.242 M182.439,129.774
			c0.261-0.347,0.781-0.608,0.869-0.955c0.174-1.216-0.695-2.692-1.217-2.345c-0.607,0.348-0.955,1.216-1.129,1.911
			C180.616,129.34,181.311,129.688,182.439,129.774 M173.062,176.145c-0.521-0.174-1.129-0.348-1.737-0.521
			c-0.26-0.087-0.781,0-0.781,0.174c-0.086,0.261-0.086,0.695,0,0.955c0.521,0.955,1.303,1.562,2.346,1.562
			C172.889,177.621,172.975,177.013,173.062,176.145 M226.031,180.834c-0.781-0.348-1.477-0.869-2.258-1.043
			c-0.348-0.086-0.781,0.348-1.216,0.521c0.173,0.434,0.261,1.042,0.607,1.303C224.121,182.136,224.988,181.615,226.031,180.834
			 M92.479,160.34c-1.65-0.607-1.997-0.434-2.953,1.129C91.263,162.771,91.871,162.512,92.479,160.34 M201.891,119.094
			c-0.694,0.521-1.215,0.955-1.736,1.303c0.521,0.434,0.955,1.042,1.477,1.129c0.26,0.086,0.867-0.695,1.041-1.216
			C202.846,120.136,202.238,119.702,201.891,119.094 M113.406,105.113c-0.434,0.435-1.042,0.782-1.042,1.129
			c0,0.348,0.694,1.129,0.781,1.042c0.608-0.26,1.042-0.781,1.65-1.129C114.448,105.808,114.014,105.548,113.406,105.113
			 M99.339,156.086c0.434-0.435,0.782-2.866,0.348-3.3c-0.174-0.174-0.608-0.26-0.869-0.174c-0.174,0.087-0.434,0.435-0.434,0.695
			C98.644,154.262,98.992,155.217,99.339,156.086 M108.891,102.421c0.087,0.174,0.174,0.348,0.261,0.434
			c0.955-0.347,1.823-0.607,2.779-1.042c0.086,0,0-0.607-0.174-0.868c-0.087-0.174-0.608-0.434-0.695-0.434
			C110.367,101.119,109.672,101.813,108.891,102.421 M118.877,266.365c-1.563,0.261-2.258,0.869-2.084,1.998
			C118.703,268.189,119.224,267.668,118.877,266.365 M136.07,135.332c0.174,0.087,0.261,0.087,0.435,0.173
			c0.521-1.128,1.128-2.17,1.65-3.299c0-0.087-0.087-0.261-0.174-0.348c-0.174-0.087-0.434-0.087-0.434,0
			c-0.608,0.869-1.129,1.737-1.65,2.692C135.896,134.724,136.07,135.071,136.07,135.332 M167.591,158.517
			c-0.435-0.521-0.694-0.868-1.042-1.129c-0.434,0.348-0.868,0.694-1.129,1.129c-0.086,0.087,0.521,0.956,0.695,0.868
			C166.549,159.385,166.896,158.951,167.591,158.517 M173.322,261.242c0.434-0.607,0.955-0.955,0.955-1.303
			c0-0.26-0.607-0.868-0.781-0.781c-0.348,0.174-0.695,0.607-0.869,0.955C172.453,260.287,172.889,260.721,173.322,261.242
			 M125.042,262.719c-0.087-0.174-0.087-0.348-0.174-0.521c-0.694,0.261-1.302,0.435-1.997,0.695
			c0.174,0.347,0.174,0.955,0.434,1.041C124.521,264.368,124.608,263.326,125.042,262.719 M217.174,173.191
			c0-0.174,0.087-0.347,0.087-0.521c-0.608-0.174-1.303-0.521-1.737-0.347c-0.348,0.086-0.348,1.041-0.521,1.91
			C216.045,173.8,216.566,173.539,217.174,173.191"/>
		<path fill="#FFFFFF" d="M96.821,150.615c-0.347,0.695-0.434,1.303-0.869,1.737c-1.215,1.129-2.518,2.084-3.82,3.039
			c-0.174,0.174-0.608,0.087-0.869,0.087c-2.344-0.174-4.689-0.347-6.947-0.608c-0.955-0.173-1.997-0.521-2.865-1.042
			c-0.695-0.347-0.521-1.302,0.347-1.563c3.3-1.129,6.6-2.431,10.16-2.518c1.389,0,2.866,0.26,4.255,0.434
			C96.387,150.181,96.647,150.441,96.821,150.615"/>
		<path fill="#FFFFFF" d="M95.518,126.475c0.869,1.477,0.782,2.779,0.434,3.908c-0.521,1.563-0.26,2.866,0.782,4.168
			c1.65,2.084,1.563,2.084,0,4.255c-0.695,0.956-1.389,1.911-2.171,2.953c-0.087,0.087-0.174,0.173-0.26,0.26
			c-1.216-1.042-2.258-1.91-1.998-3.734c0.261-1.476,0-2.865,0.782-4.342c0.955-1.823,1.389-3.907,1.997-5.818
			C95.258,127.69,95.345,127.256,95.518,126.475 M93.955,138.892c0.782-0.608,1.65-2.952,1.39-3.56
			c-0.087-0.174-0.435-0.434-0.695-0.434c-0.261,0-0.608,0.26-0.695,0.434C93.955,136.461,93.955,137.59,93.955,138.892"/>
		<path fill="#FFFFFF" d="M81.104,123.349c0-1.129,0-2.258,0-3.387c0-1.042-0.347-1.91-1.476-2.344
			c-0.347-0.174-0.608-0.782-0.695-1.216c-0.087-1.65-0.087-3.3-0.087-4.95c0-0.521-0.173-1.042-0.26-1.563
			c-0.174-0.955-0.608-1.215-1.563-0.868c-0.434,0.174-0.868,0.26-1.303,0.347c-0.087-0.173-0.173-0.26-0.26-0.434
			c0.781-0.608,1.476-1.389,2.344-1.737c1.042-0.521,1.65-0.086,1.65,1.129c0,1.824,0,3.734-0.086,5.558
			c-0.087,1.216,0.26,2.258,1.128,3.126c1.39,1.476,1.65,3.213,1.39,5.21c-0.087,0.435-0.261,0.782-0.434,1.129
			C81.451,123.349,81.277,123.349,81.104,123.349"/>
		<path fill="#FFFFFF" d="M219.432,150.962c-0.174-0.347-0.435-0.607-0.521-0.955c-0.26-2.171-0.348-4.428-0.521-6.599
			c0-0.174,0-0.348,0.088-0.521c0.348-0.608,0.694-1.129,1.041-1.737c0.088,0.608,0.348,1.129,0.348,1.737
			c0.174,2.084,0.261,4.168,0.348,6.165c0,0.608-0.261,1.129-0.348,1.737C219.779,150.875,219.605,150.875,219.432,150.962"/>
		<path fill="#FFFFFF" d="M124.782,253.688c-0.348-0.174-0.608-0.174-0.782-0.348s-0.347-0.434-0.434-0.694
			c0.26-0.173,0.434-0.435,0.695-0.435c1.042,0,2.17-0.086,2.17,1.477c0,0.261,0.174,0.521,0.348,0.781
			c0.868,1.303,0.781,1.91-0.434,2.866c-0.782-0.608-1.563-1.129-2.258-1.737c-0.174-0.086-0.087-0.521,0-0.781
			C124.174,254.469,124.521,254.122,124.782,253.688"/>
		<path fill="#FFFFFF" d="M90.395,113.71c0.955,0.521,1.389,1.216,1.302,2.171c-0.173,2.518-0.347,5.037-0.434,7.642
			c0,0.26-0.087,0.521-0.087,0.695h-0.347c0-1.129,0-2.258,0-3.387c0-0.782,0-1.476-0.781-1.911
			c-0.174-0.086-0.348-0.347-0.348-0.521C89.7,116.923,89.353,115.273,90.395,113.71"/>
		<path fill="#FFFFFF" d="M234.106,145.144c0.521,3.04,0.087,5.818-1.649,8.336C231.936,150.441,232.631,147.663,234.106,145.144"/>
		<path fill="#FFFFFF" d="M223.687,139.934c-0.174-1.997-0.348-3.734-0.348-5.471c0-0.173,0.782-0.521,1.216-0.521
			c0.26,0,0.781,0.435,0.781,0.695C225.336,136.374,225.597,138.284,223.687,139.934"/>
		<path fill="#FFFFFF" d="M220.3,161.035c0.174-0.695,0.435-1.477,0.521-2.171c0.088-0.694,0.174-1.39,0.174-1.997
			c0-0.781-0.086-1.563,0-2.345c0-0.261,0.261-0.434,0.435-0.695c0.173,0.174,0.608,0.347,0.608,0.521
			c0.086,1.997,0.086,3.995,0,5.905c0,0.434-0.782,0.781-1.217,1.129C220.734,161.209,220.474,161.122,220.3,161.035"/>
		<path fill="#FFFFFF" d="M192.078,199.676c-0.955,2.866-1.997,5.732-3.126,8.945c-0.781-1.217,0.608-6.34,1.997-8.598
			c0.174-0.26,0.521-0.434,0.869-0.607C191.904,199.59,191.992,199.676,192.078,199.676"/>
		<path fill="#FFFFFF" d="M235.062,136.808c-0.261,1.129-0.521,2.171-0.781,3.3c-0.174,0.868-0.261,1.823-0.521,2.692
			c-0.088,0.26-0.348,0.434-0.521,0.608c-0.087,0-0.348-0.174-0.435-0.348c-0.781-1.563,0.435-5.384,1.911-6.252
			C234.801,136.721,234.889,136.808,235.062,136.808"/>
		<path fill="#FFFFFF" d="M234.975,129.948c0.174-0.869,0.174-1.737,0.435-2.605c0.087-0.348,0.694-0.782,0.868-0.695
			c0.521,0.174,0.955,0.608,1.389,1.042c0,0-0.347,0.521-0.521,0.782c-0.173,0.26-0.347,0.607-0.521,0.781
			c-0.348,0.347-0.695,0.695-1.043,1.042C235.322,130.208,235.148,130.035,234.975,129.948"/>
		<path fill="#FFFFFF" d="M81.19,128.732c0.434,0.608,0.955,1.216,1.129,1.824c0.261,0.868,0.347,1.736,0.434,2.692
			c0,0.173-0.173,0.434-0.26,0.608c-0.174-0.087-0.521-0.174-0.608-0.348c-0.434-1.476-0.782-3.039-1.216-4.515
			C80.843,128.906,81.017,128.819,81.19,128.732"/>
		<path fill="#FFFFFF" d="M86.314,118.573c0.173,0.434,0.434,0.782,0.434,1.216c0,0.955-0.087,1.91-0.174,2.866
			c0,0.26-0.26,0.434-0.434,0.694c-0.174-0.174-0.521-0.434-0.434-0.608c0-1.302,0.086-2.605,0.173-3.907
			C85.966,118.66,86.14,118.573,86.314,118.573"/>
		<path fill="#FFFFFF" d="M115.664,161.122c-1.129,0.173-2.258,0.435-3.474,0.607c0.087-1.823,0.347-2.084,1.65-1.563
			c0.608,0.262,1.216,0.348,1.824,0.521C115.664,160.861,115.664,161.035,115.664,161.122"/>
		<path fill="#FFFFFF" d="M226.639,155.738c-0.174-1.216,0.695-2.258,1.65-2.084c0.174,0,0.434,0.26,0.434,0.347
			c-0.087,0.347-0.087,0.868-0.348,1.042C227.854,155.304,227.246,155.478,226.639,155.738"/>
		<path fill="#FFFFFF" d="M77.457,133.421c-0.087-1.129-0.087-1.91-0.087-2.779c0-0.173,0.174-0.434,0.348-0.521
			c0.173-0.087,0.434,0.086,0.521,0.173C78.585,130.729,78.238,132.727,77.457,133.421"/>
		<path fill="#FFFFFF" d="M160.558,100.771c0.261-0.086,0.694-0.347,1.042-0.26c0.348,0,0.781,0.347,0.868,0.695
			c0.261,0.607,0.435,1.302,1.216,1.042c0.781-0.261,1.562-0.695,2.258-1.042c-0.435-0.695-0.695-1.737-1.303-2.084
			c-1.216-0.695-0.955-1.477-0.607-2.345c0.347-0.868,1.476-1.129,1.996-0.347c0.695,1.042,1.303,2.257,1.911,3.386
			c0,0.087,0.087,0.174,0.087,0.261c-1.042,1.65,0.086,2.952,0.521,4.428c0.347,0.956-0.956,2.605-2.084,2.866
			c-0.695,0.087-1.477,0.347-2.172,0.261c-0.607-0.087-1.477-0.348-1.649-0.782C161.773,105.026,161.252,103.203,160.558,100.771"/>
		<path fill="#FFFFFF" d="M115.75,111.105c1.737-0.347,3.3-0.695,4.95-1.042C119.05,112.408,117.4,112.842,115.75,111.105"/>
		<path fill="#FFFFFF" d="M114.361,94.172c0.782-0.261,1.563-0.521,2.431-0.869c0,0.174,0.087,0.782,0,0.782
			c-0.781,0.174-1.649,0.26-2.431,0.347C114.361,94.346,114.361,94.259,114.361,94.172"/>
		<path fill="#FFFFFF" d="M234.801,172.584c-1.477,0.955-2.778,1.91-4.602,1.91c-2.084-0.086-4.168,0.348-6.166,0.521
			c-1.215,0.086-2.258-0.261-3.039-1.303c-0.607-0.781-1.562-1.303-2.084-2.084c-1.042-1.303-0.781-1.736,0.869-1.997
			c3.733-0.608,7.207,0,10.68,1.302C231.762,171.455,233.238,172.062,234.801,172.584"/>
		<path fill="#FFFFFF" d="M155.521,117.184c1.041,0,2.17,0,3.213,0c0.26,0,0.694-0.087,0.867,0.087
			c0.436,0.434,0.782,0.955,1.217,1.476c-0.348,0.26-0.781,0.521-1.129,0.781c-1.303,0.782-2.605,1.129-4.168,1.129
			c-1.563-0.087-2.779-0.781-3.995-1.65c-0.347-0.26-0.521-0.955-0.781-1.389c0.434-0.174,0.868-0.347,1.303-0.434
			C153.176,117.184,154.392,117.184,155.521,117.184L155.521,117.184z"/>
		<path fill="#FFFFFF" d="M149.703,105.026c-0.868-0.607-1.824-0.955-1.997-1.476c-0.174-0.608,0.26-1.476,0.521-2.258
			c0.087-0.26,0.694-0.347,1.042-0.26c0.173,0,0.434,0.521,0.434,0.781C149.703,102.682,149.703,103.637,149.703,105.026"/>
	</g>
</g>
</svg>
