<svg xmlns="http://www.w3.org/2000/svg" viewBox="0 0 357.00079 319.53107">
    <g id="demon">
        <path d="M211.13768,284.63108a12.38629,12.38629,0,0,1-2.2,1.8c-1.1.6-2.2,1.1-2.3,2.6-.1,1.2-.7,1.5-1.8,1.3-.9-.1-1.7-.2-1.7,1.2,0,.2-.9.6-1.4.5a8.31778,8.31778,0,0,1-2-.9c.7-1.3,1.5-2.7,2.2-4s1.5-2.5,2.2-3.7a6.80328,6.80328,0,0,0,.2-1.5c-.8.1-2-.1-2.3.4a64.23049,64.23049,0,0,0-3.7,6.8,4.36,4.36,0,0,0,.2,2.5c.4,1.8.2,2.2-1.6,2.4-1,.1-1.9.1-2.2,1.4-.1.5-.8.9-1.3,1.2-2.1,1.3-4.2,2.6-6.5,3.8-2.7,1.4-5.6.6-8.5.8.3-1.5-1.9-2.6.1-4.2-1.6-.3-2.8-.5-4.2-.8,1-1.8,1.8-3.4,2.8-5.1-.7-.2-1.3-.3-2-.5a1.11975,1.11975,0,0,1-.7-.8c0-.2.3-.5.6-.8a1.6117,1.6117,0,0,1,.7-.4,2.385,2.385,0,0,0,2-3.2c-.2-1,.3-1.5,1.3-1.4,1.7.1,3.4.3,5,.4a6.34461,6.34461,0,0,0,2.4-.3c2.4-1.4,4.5-3.5,7.4-4.1a1.14932,1.14932,0,0,0,.6-.9c.1-2.2.3-4.4-1.1-6.5-1.4-2-2.5-4.2-3.8-6.2a2.86506,2.86506,0,0,0-1.9-1.1c-2-.1-2-.1-3-2.2a3.54561,3.54561,0,0,0,1.1-.3c.4-.2.9-.5,1-.8a1.80634,1.80634,0,0,0-.4-1.5c-1.6-.9-1.6-2-1-3.6.8-2.2.2-3.3-1.7-4.7a12.85708,12.85708,0,0,1-3.2-3.4c-1.6-2.7-3.8-5-4.5-8.2-.1-.4-1.1-.7-1.7-.7-.3,0-.9.6-1,1-.8,2.7-1.6,5.4-2.3,8.2a12.25153,12.25153,0,0,0-.2,1.9c-.6,3.3-1.4,6.5-1.8,9.8-.2,1.9-1.8,3.6-1.1,5.7.3.8-.4,1.5-1.5,1.6a2.99751,2.99751,0,0,0-2.4,3.7,1.555,1.555,0,0,0,.6.8c1.2.7,1.5,1.2,1.5,3a14.1894,14.1894,0,0,1-1.8-1.1,1.60013,1.60013,0,0,0-2.3,0q-.6.45-1.2.9c-1.4.8-1.9.5-2.1-1.1a4.18474,4.18474,0,0,0-.8-1.2c-.4.3-1.1.6-1.2.9a2.99567,2.99567,0,0,0,.6,1.8c.4.6,1.3.9,1.6,1.4,1.9,2.8,4.7,3.4,7.7,1.8a4.921,4.921,0,0,1,5.1-.2c.4.2.7,1.3.5,1.5a57.119,57.119,0,0,1-4.8,3.8c-.1.1-.5,0-.9-.1,1-1,1.8-1.9,2.7-2.7-.1-.2-.2-.3-.3-.5a4.8,4.8,0,0,0-1.2,0c-1.9.5-3.9,1-5.8,1.5-.3.1-.7.3-.7.4,0,1.7-1.4,1.6-2.5,1.8a10.56033,10.56033,0,0,0-6.4,4.1c-.5.7-1.1,1.4-1.8,2.2a6.71252,6.71252,0,0,1,1.5.6c.4.3.8.9.7,1.3,0,.3-.7.8-1.1.9a19.41765,19.41765,0,0,1-2.4.2c-.6.1-1.1.5-1.7.5a5.86228,5.86228,0,0,1-2.3-.1c-2.5-.9-5-.4-7.5,0a1.2154,1.2154,0,0,0-1.2,1.4,2.0533,2.0533,0,0,1-1,1.5,30.76083,30.76083,0,0,1-5.3.4c-.4,0-.7-.5-1.1-.8a12.749,12.749,0,0,1,1.2-.7,5.09345,5.09345,0,0,0,1.7-.7c-1.9-1.5-3,.8-4.8.8,0-1.9-1.3-3.8.6-5.7.4-.4.3-1.5.3-2.2-.1-2.2.4-2.8,2.6-3.3a21.66173,21.66173,0,0,0,2.5-.4,19.99162,19.99162,0,0,0,2.1-1l-.3-.6c-1.7,0-1.7-.9-1.3-2.3.3-.9.1-2.3.7-2.7.6-.5,1.9-.2,2.9-.3a18.28641,18.28641,0,0,0,2.5-.6c.4.6.7,1.2,1,1.6.8-.4,1.5-1.1,1.8-1a8.65158,8.65158,0,0,1,2.3,1.9c.4.4,0,1.5,1.1,1.4,1.3-.2,2.7-.2,3.3-1.6a1.92546,1.92546,0,0,0-.6-2.5,4.51427,4.51427,0,0,1-.7-.7c1-.7,1.9-1.2,2.8-1.8a2.73023,2.73023,0,0,0,1.2-2.4c.2-2.1.3-4.3,1.3-6.1.8-1.6.4-2.6,0-4a7.56823,7.56823,0,0,1-.1-1.5c.2-6.5.4-13.1.8-19.6a57.05729,57.05729,0,0,1,1.7-8,.75809.75809,0,0,1,.2-.4c1.1-2.1,2.7-4,3.3-6.2,1.3-4.4,4.5-8.1,5.2-12.8a6.1736,6.1736,0,0,1,1.6-3.1c.7-.8,1.9-1.2,3.2-2-.6-.5-1.1-1.2-1.7-1.4-1.3-.3-2,.3-2.6,1.6-1.4,2.8-3.2,5.5-4.7,8.3a25.5089,25.5089,0,0,0-1.1,3.3c-1.1-.6-1.7-1.3-1.2-2.5,1.1-2.8.6-5.6-.2-8.4-1-3.8-.7-7.6-.4-11.5a43.31685,43.31685,0,0,1,.8-5,1.486,1.486,0,0,1,.2-.9c2.2-3.3,2-7.2,2.5-10.9a57.92131,57.92131,0,0,1,2.3-10,54.18944,54.18944,0,0,0,1.7-8c.3-1.4-.4-2-1.8-1.8a9.01627,9.01627,0,0,0-2.2.6,24.89221,24.89221,0,0,0-4,2,23.27946,23.27946,0,0,1-11.1,3.7c-.5,0-1.2,0-1.5-.3-.7-.8-1.5-.7-2.5-.6a6.47236,6.47236,0,0,1-2.4-.1c-2.6-.8-5.4-1.3-7.7-2.7-2.5-1.5-5-.8-7.5-.9a1.44542,1.44542,0,0,0-1,.7c-.6,1.8-2,2.7-3.3,3.7a3.42566,3.42566,0,0,1-1.8.3,6.65077,6.65077,0,0,0-5.2,1.6,14.81,14.81,0,0,1-9,3.7,1.3443,1.3443,0,0,0-.9.2c-1.6,1.3-3.2.6-4.8.1a28.76035,28.76035,0,0,1-9.3-5.3,5.01478,5.01478,0,0,1-1.8-3.5c-.1-1.8-.1-3.6-.2-5.4-.1-1.5.4-2.4,2-2.5a4.50946,4.50946,0,0,0,1.1-.3c.1.1.2.3.3.4a7.5179,7.5179,0,0,1-1.6,1.5,1.74165,1.74165,0,0,0-1,2.2c.4,1.5.4,3.3,1.1,4.6a8.95825,8.95825,0,0,0,3.3,3.1c1.8,1.3,1.8,1.1,3.3-.6a9.24743,9.24743,0,0,1,2.9-1.7c.1.1.2.3.3.4-.5.4-1,.8-1.6,1.2.9.9,2.9.4,2.8,2.3,1.9,0,2.1-.2,1.9-2.2-.1-.9-.6-2-.3-2.5.4-.6,1.6-.6,2.4-.9a14.46145,14.46145,0,0,0,2.2-.9,5.84448,5.84448,0,0,0,1.3-1.4c.1-.1.1-.3.2-.4,1.6-.4,1.9-2.2,3.2-2.9a4.24621,4.24621,0,0,0,1.9-5,2.19,2.19,0,0,0-1.3-1.2c-4.1-.9-8.2-1.1-12.2.5-2.6,1-5.2,1.8-7.8,2.7-.4-1.9.6-3.1,2.7-3.2a14.28974,14.28974,0,0,0,3.7-.7c4.2-1.6,8.5-2.4,13-1.2.7.2,1.4.1,2.1.3a8.015,8.015,0,0,1,1.9,1.3,11.09369,11.09369,0,0,0,2.4,2c2.7.9,5.4,1.5,8.1,2.3,1.7.5,3.3,1.1,5,1.7a8.178,8.178,0,0,0,7-1.1c4.4-2.7,8.2-6,10.4-11a28.86767,28.86767,0,0,1,4.6-6.4,3.96276,3.96276,0,0,0,1.1-3.2,2.23436,2.23436,0,0,1,1.5-2.7c1.2-.5,2.6-1.2,2.4-3-.1-.9-.5-1.4-1.4-1.4-1,.1-2.3-.7-2.7,1-.2.6-.3,1.3-.5,1.9-.1.3-.3.7-.4.7-1.7.1-1.9,1.6-2.6,2.6a1.83,1.83,0,0,1-2.3.7,6.918,6.918,0,0,0-3.5,0c-1.1.4-1.6.2-1.7-.9a3.22129,3.22129,0,0,0-2.7-3.2c-2.3-.7-2.4-1.1-1.8-3.4.7-2.9.4-3.4-2.5-3.6a2.71278,2.71278,0,0,1-2.5-1.5,9.06177,9.06177,0,0,0-1.1-1.6,2.1983,2.1983,0,0,1-.1-3.1c1.1-1.6.9-2.5-.7-3.6l-1.5-.9c-1.5-.9-1.7-1.6-1.1-3.2a3.87317,3.87317,0,0,0-1.5-5.1,33.73246,33.73246,0,0,0-4.6-2.5,2.16279,2.16279,0,0,1-1.4-2.2c.1-1.3,0-2.7.1-4a4.70321,4.70321,0,0,0-1.6-4c-.7-.6-1.4-1.3-2.1-1.9-5.1-3.5-10.2-7-15.4-10.3a18.41738,18.41738,0,0,1-5.8-5.3c-.5-.7-1.2-1.3-2.1-2.3a10.80637,10.80637,0,0,1,1.7.4,43.90686,43.90686,0,0,0,12.7,4.1c3.8.5,7.6,1.4,11.5,2.1a25.12,25.12,0,0,0,2.7.4c.4.1.9,0,1.2.1,3.2,2,6.9.6,10.3,1.4a26.81593,26.81593,0,0,1,7.5,2.7c3.9,2.3,7.4,5.2,9,9.6a55.48487,55.48487,0,0,1,1.6,7.3c1.2,5.9,2.2,11.9,7.1,16.2.8.7,1.5,1.3,2.3,2a3.51294,3.51294,0,0,0,3.7.8,22.73659,22.73659,0,0,1,4.7-.3c-.3-.6-.5-1-.7-1.4-.9-2.4-2.2-4.8-2.5-7.3-.8-5.2-2.1-10.4-1.6-15.7.1-1.6.3-2.7,2.2-2.4a.3673.3673,0,0,0,.3-.1c.1,0,.1-.1.3-.3-.5-1.3-1-2.4-2.8-2.3a2.469,2.469,0,0,1-1.6-.8c-2.5-3.9-4.5-8-5-12.6a8.3299,8.3299,0,0,1,.3-2.2c0-1.1,0-2.2-.1-3.4,0-.3-.2-.7-.2-1,0-.8-.1-1.9,1-2.1s1,.9,1.4,1.6c1,2,2,4,3.2,5.9a32.68475,32.68475,0,0,0,2.8,3.7c.5.5,1.2.9,2.1,1.6v-1.9c-.2-2.3-.4-4.7-.5-7a19.74754,19.74754,0,0,1,6.9-16.1c.7-.7,2.4-.3,3.6-.3a3.10976,3.10976,0,0,1,.1,1.1c-1.1,3-2.3,5.9-3.4,8.9a12.49981,12.49981,0,0,0-.3,1.9,35.88472,35.88472,0,0,0,1.4,14.6c.4,1.2,1,1.7,2.3,1.4a20.55515,20.55515,0,0,1,8.2-.3c1.8.4,3.6-1.5,3.7-3.3.4-6.8-.7-13.4-1.1-20.2a11.79629,11.79629,0,0,1,.4-2c.7.4,1.7.6,2.1,1.2,2.9,4.7,5.3,9.7,5.5,15.5.1,1.7,0,3.4,0,5.1,0,.6.1,1.2.1,1.5,1.6-2.3,3.3-4.8,5.1-7.2.3-.4.5-.7.8-1.1q.6-.45,1.2-.9c.3.4.8.8.9,1.2a16.51873,16.51873,0,0,1-1,8.8c-1,2.5-2.1,4.9-3.1,7.4a24.12837,24.12837,0,0,0-.8,2.5c-.1.3-.1.8-.4.9-1.7.9-1.1,2.2-.8,3.6.3-.3.5-.6.7-.6a4.49456,4.49456,0,0,1,2,0,1.37729,1.37729,0,0,1,.5,1.5c-.5,2.2-1.2,4.3-1.9,6.4a21.48973,21.48973,0,0,0-1.3,3.2c-.5,2.6-2.2,4.5-3.8,6.5a34.13949,34.13949,0,0,0-2.5,3.7c-.5.8-.3,1.4.8,1.5a6.15412,6.15412,0,0,1,2.3.7c2.3,1.2,4.5.5,6.7-.1,1.3-.4,1.7-1.5,1.9-2.7.3-2.2.6-4.5.8-6.7a38.26728,38.26728,0,0,1,3.1-12.5,28.1426,28.1426,0,0,1,5-8.1c2.5-2.9,7.7-5.2,11.7-2.5.7.5,1.2.2,1.4-.5.3-1.3,1.2-1.6,2.3-1.8,2.3-.5,4.7-.9,7-1.5,1.4-.4,2.7-1,4-1.5a35.3556,35.3556,0,0,0,11.6-5.9c.8-.7,1.5-1.6,2.4-2.3a10.04978,10.04978,0,0,1,2.4-1.6c0,2.3-.2,4.4-1.6,6.1-2.4,2.9-4.8,5.9-7.3,8.7a8.00633,8.00633,0,0,0-2.1,6.2,3.02383,3.02383,0,0,1-1.7,3c-1.4.9-2.7,2.1-4.1,3.1a4.54973,4.54973,0,0,0-1.8,4.7,45.06684,45.06684,0,0,0,.8,5.3,2.256,2.256,0,0,1-1,2.6c-3.2,2-3.3,4.9-2.7,8.1.4,2.4-.4,3.5-2.9,3.6a2.37037,2.37037,0,0,0-2.3,1.7,26.0413,26.0413,0,0,1-1,2.5c-.7,1.5-1.7,2.9-3.4,3.1-3,.3-4,2.4-5.1,4.7a6.13568,6.13568,0,0,1-1.7,1.9c-1.8,1.3-3.7,2.4-5.5,3.7a2.24133,2.24133,0,0,0-.8,1.9c.1,2.2.4,4.5.6,6.7a15.92344,15.92344,0,0,1-1,7.8,10.89189,10.89189,0,0,0-.5,2.6,3.22541,3.22541,0,0,0,1.5,3c3.3,2.8,6.3,5.7,9.5,8.7a6.19111,6.19111,0,0,1,1.1,1.7,3.35257,3.35257,0,0,0,3.7,1.7c.3-.1.5-.7.7-1.1.3-.4.7-.8,1.1-1.3.3.4.6.7.9,1.1a2.99445,2.99445,0,0,1,.4,1c.8,1.8.9,1.9,2.8,1.2.8-.3,1.2-.2,1.6.5.3.5.6,1,.9,1.6.3.5.5,1,.8,1.6a4.651,4.651,0,0,0,.9-.3,17.4738,17.4738,0,0,1,7.7-2.8,1.746,1.746,0,0,0,1.8-1.5,1.59369,1.59369,0,0,1,1.8-1.4,5.85217,5.85217,0,0,0,1.3-.2c4.9-1.8,9.5-.9,14.1.9a11.4335,11.4335,0,0,0,3.2.7c.5,0,1.5-.4,1.5-.6,0-.9.7-2.1-.6-2.6a3.49518,3.49518,0,0,1-2.4-2.8c.9.3,1.6.6,2.3.9,1,.4,1.4.2,1.6-.9.5-2.5,1.2-4.9,1.9-7.4a5.078,5.078,0,0,1,.9-1.2c.6,2,1.2,3.6,1.8,5.6-2.1-.5-2.2.7-2.4,2a58.46275,58.46275,0,0,1-1.3,5.7c-.5,2-.1,2.9,1.6,4.1a2.92515,2.92515,0,0,0,1.2.7c1.8.3,2.1,1.5,1.9,3.1-.1,1.3-.1,2.6-.1,3.9a6.91052,6.91052,0,0,1-3.4,6.4c-3,1.8-6.2,3.2-9.3,4.8a1.72859,1.72859,0,0,1-1,.1c-4.6-1.4-9.7-1.7-13.3-5.5-.8-.8-2.5-.9-3.8-.9a6.09146,6.09146,0,0,1-5.4-3.6c-.2-.4-.7-.9-1.1-.9-1.6.3-1.8-.6-1.7-1.8a9.64188,9.64188,0,0,0-.2-1.2c-2.4,2.8-4.8,1.2-7.2.4-1.3,1.4-1.1,2.3.8,3a3.44533,3.44533,0,0,0-.5,1.1c0,.5.1,1.3.4,1.5a5.1435,5.1435,0,0,1,2.3,4.6,34.235,34.235,0,0,1-4-1.7,5.85379,5.85379,0,0,1-2.2-1.9c-2.1-4.1-6.1-5.7-9.8-7.7-2.5-1.3-4.9-2.7-7.4-4.1a1.27541,1.27541,0,0,1-.5-.7c-.6-1.8-.9-2.1-3.2-2.4-.1,1-.2,1.9-.3,3.3-.6-.7-.9-1.2-1.3-1.7-1.3-1.6-2.1-1.5-3.2.2a3.5917,3.5917,0,0,1-2.1,1.5c-1.3.4-1.2,1.3-1.1,2.1.1.3,1.1.6,1.6.6a23.39,23.39,0,0,0,3.2-.7c.7,3.2,1.4,6.5,2.1,9.7a8.75469,8.75469,0,0,0,1,2.2c1.2,1.9,2.5,3.8,3.6,5.8,1.7,2.9,1.6,6.3,2.3,9.5.5,2.5,1.3,4.9,1.9,7.4a8.26556,8.26556,0,0,1-.1,2.7c-.3,2.6-.7,5.1-.9,7.7a50.45109,50.45109,0,0,0,0,5.5c.2,2.7,3.1,4.6,6.1,4-.9-2.6-1.9-5.2-2.8-7.8,1.2-.5,1.6-.1,1.9.7.7,2,1.5,3.9,2.3,5.8s1.9,2.4,4.3,2a21.75911,21.75911,0,0,0-1.1-2.7,8.9234,8.9234,0,0,1-1.2-4.5c-.2-3.7-.4-7.4.8-11,.5-1.4,1.1-2.7,1.5-4a4.0123,4.0123,0,0,0,.3-1.5c.1-2.8,1.7-4.3,4.5-4.3h3.6c-.4-1.8-6.9-2.3-9.7-1.1.3-.5.4-1.3.8-1.4a14.56477,14.56477,0,0,1,13.4,1.7c1.1.8,2.1,1.9,3.2,2.7,3.8,2.9,4,6.8,3.1,11.1a22.55255,22.55255,0,0,0-.8,5.1c-.1,3.8-1.7,6.9-3.6,10a16.40735,16.40735,0,0,0-1.6,2.9c-.7,1.7-.2,2.6,1.6,2.7,2.7.3,5.4.5,8,.7,1.1.1,2.4.2,2.9-1.5,3,2.2,5.8,1.5,8.7.3,1.1-.5,1.6-1.1,1.4-2.1-.7-3.5-1.4-7.1-4.1-9.7a6.47778,6.47778,0,0,1-1.7-3.4,15.68871,15.68871,0,0,1,1.4-9.3,28.75251,28.75251,0,0,0,1.1-4.2c.2-.9-.2-1.2-1-1.2a14.71794,14.71794,0,0,1-2.1,0,23.40985,23.40985,0,0,1-2.4-.9c.1-.1.1-.3.2-.4a24.68086,24.68086,0,0,0,4.1-1.4,26.6511,26.6511,0,0,0,3.6-3.2,2.4,2.4,0,0,1,1.2-.7c.2,0,.6.5.6.8,0,3.4,1.7,6.2,3.3,9a4.16877,4.16877,0,0,1,.2.6c-1.2.4-1.9.2-2.4-1-.4-1.1-.8-2.3-2.1-2.7-.9-.3-1.4-.1-1.5,1a34.13118,34.13118,0,0,1-1,4.6,3.56605,3.56605,0,0,0,.7,3.6c.6.7,1.3,1.4,1.9,2.1,2.8,3.4,5.7,6.8,8.3,10.4,1.1,1.5.9,3.6.4,5.5-.2.6.1,1.3.1,1.9-1,1.5-2.1,3.1-3.2,4.7-.5.8-1.1,1.1-1.7.2-.6-.7-1-1.6-1.5-2.3a1.18975,1.18975,0,0,0-1.1-.4,10.88585,10.88585,0,0,0-2.3,1.4,3.78563,3.78563,0,0,1-3.1,1.4c-.8,0-1.4.3-1,1.5,2.3-.6,4.6-1.1,7-1.7.2,1.3-.7,1.9-1.6,2.3-4.5,1.8-9,3.4-14,3a53.01222,53.01222,0,0,1-13.6-3.3,5.73969,5.73969,0,0,1-.7-.4c.4-1.3,1.3-1.1,2.2-.8,2.2.7,4.3,1.3,6.8,2.1-.6-1.4-.9-2.6-2.6-2.4-.7.1-1.5-.8-2.2-1.3-1.6-1.3-1.6-1.4-3.2-.1a11.22935,11.22935,0,0,1-11.2,2.1c-2.9-.9-5.7-2.1-8.5-3.2a2.18686,2.18686,0,0,1-.5-.3c-2.7-2.9-6.3-5.1-7.6-9.1a55.46945,55.46945,0,0,1-1.4-7.3c-.7-4.2-1.1-8.5-1.9-12.7a77.925,77.925,0,0,0-2.2-8.3c-.1-.4-1.1-.7-1.6-.7a1.58931,1.58931,0,0,0-1,1.1,25.1618,25.1618,0,0,1-1.1,6.2c-.5,2.3-2.2,4.1-2.4,6.5q-.15,3.45-.6,6.9a46.93809,46.93809,0,0,1-1.4,6.5c-.3,1.3-.2,2.4,1,3a1.757,1.757,0,0,1,.9,2.6,2.90862,2.90862,0,0,0,.6,3.7,2.075,2.075,0,0,1,.6,1c.7,2.7,2.7,4.5,4.2,6.7a44.41907,44.41907,0,0,1,2.4,4.9c.7,1.5,1.1,3.1,1.8,4.6a8.5664,8.5664,0,0,1,.5,6.3,3.99811,3.99811,0,0,0,.9,4,23.4695,23.4695,0,0,1,2.2,4.5,24.28376,24.28376,0,0,0,1.8,3.2,5.08922,5.08922,0,0,0,2.4,2.2c2,.7,3.8,1.9,6.2,1.9a23.31341,23.31341,0,0,1,5,1c-.6.7-1,1.4-1.6,1.7-.7.5-1.5,1.2-2.5.3-.8-.8-1.7-.6-2.5.3-.3.9-1.7,1.6-3.4,1.3a3.77957,3.77957,0,0,1,2.1-3.2c.3-.1.5-.7.7-1a2.46019,2.46019,0,0,0-1.1-.4,8.0694,8.0694,0,0,0-2.7.1,3.17815,3.17815,0,0,0-1.8,1.6c-.9,2.9-.5,3.3,2.5,3.1.1-.1.2-.1.3-.2m-49.1-161.4q.15,1.35.3,2.7c.1,0,.3.1.4.1.4-.6.7-1.2,1.1-1.8a16.18064,16.18064,0,0,1-1.8-1c-.5-.3-.9-.9-1.5-1.1a37.92432,37.92432,0,0,0-6.8-1.9,1.394,1.394,0,0,0-1.7,1.5c.1,1.1.2,2.2.4,3.3.3,1.1,0,1.3-1.1,1.5a7.242,7.242,0,0,0-2.3,1.2,7.60743,7.60743,0,0,1-1.9,1.2c-1.5.5-1.9,1.7-.8,2.9a8.6962,8.6962,0,0,1,1.3,1.5c.5.8,1.1,1.1,1.8.5a4.69518,4.69518,0,0,0,1.7-2c.5-1.1.7-2.3,1.2-3.4.2-.4.8-.9,1.1-.8a1.786,1.786,0,0,0,2.4-1.5c.2-.5.5-.9.8-1.6a16.79322,16.79322,0,0,0,1.4,3,9.73732,9.73732,0,0,0,2.4,1.5,13.20518,13.20518,0,0,0,.2-2.8,18.39571,18.39571,0,0,0-.7-3,7.30423,7.30423,0,0,0,2.1,0m10.3-37.3a21.64135,21.64135,0,0,1-3.2-.5c-.4-.1-.8-.6-1.1-1a41.079,41.079,0,0,0-3.8-4.5c-.9-.8-1.7-.2-1.6,1.1a11.36321,11.36321,0,0,0,.6,2.5c1,2.1,2.1,4,3.2,6a.99326.99326,0,0,0,.8.6c2.8,0,5.7,1.5,8.4-.5.1-.1.3,0,.4.1.4,2,.4,1.9,2.5,1.4,2.2-.5,4.4-.7,6.6-1,.4,0,1-.1,1.1.2a16.31586,16.31586,0,0,1,.9,1.9s-.6.4-.8.3c-1.7-.9-2.7-.1-3.6,1.2-.3.4-.9.5-1.2.8-.4.4-1,.9-1.1,1.4-.3,1.8-.5,3.5,1.5,4.7,1.1.7,1,1.6,0,2.3-.2.1-.3.4-.5.6.3.2.5.5.8.5,1.2.3,2.5.4,3.7.8.5.2,1.2.8,1.1,1.3,0,1.9,1,2.8,2.7,3.2a4.36065,4.36065,0,0,0,.1,5,1.33169,1.33169,0,0,0,.9.6c1.1.1,3.3-2.1,3.4-3.1a4.34917,4.34917,0,0,1,.9-2.1,15.24518,15.24518,0,0,1,2.2-2.2,1.62781,1.62781,0,0,0,.4-2.5c-.8-1.1-.4-1.8.5-2.5a5.39128,5.39128,0,0,0,1.6-1.4,17.37735,17.37735,0,0,0,1-1.9l-.4-.4c-1.1.2-2.1.5-3.4.7.3-1.7.6-3.2.8-4.5-.9-.1-1.8,0-2.2-.3-.4-.5-.7-1.7-.4-2,.4-.5,1.4-.6,2.2-.8a39.26705,39.26705,0,0,0,4.1-6.9,69.14339,69.14339,0,0,0,2.5-7.7l-.4-.2a9.23477,9.23477,0,0,0-3.3,4.7c-.7,1.8-1.2,3.6-1.9,5.4-.1.4-.7.6-1.1.7-.1,0-.6-.4-.6-.6.2-1.7-.7-2.8-1.6-4.1a1.67959,1.67959,0,0,1,.1-2.2,3.32183,3.32183,0,0,0,.7-2.1c-.1-2.8-.4-5.6-.7-8.3a27.92652,27.92652,0,0,0-1-3.9,5.7946,5.7946,0,0,0-1.4-1.7c-.1,6.7.7,13.1,0,19.5a2.88879,2.88879,0,0,0,1.4,3,2.59524,2.59524,0,0,1,.3,4.1,28.141,28.141,0,0,1-4.8-3.5c-1.7-1.9-3.6-1.5-5.6-1.3-.3,0-.7.2-1,.2-2.4.3-4.7.7-7,1-.4-.8-.6-1.5-.9-2.1a9.0359,9.0359,0,0,1-.8-2.1c-.3-1.9-.3-3.8-.6-5.6-.1-.5-.6-1.3-1-1.3-1-.1-1.2.7-1.1,1.5q.15,1.65.3,3.3c.2,1.6.3,3,.4,4.2m-30.7,33.8c1.7-.5,2-.3,2,1.2a2.95335,2.95335,0,0,0,.2,1.3c.1.2.5.3.7.3a.704.704,0,0,0,.4-.5,21.30845,21.30845,0,0,0-.3-2.5c-.3-1.1-.7-2.1-1-3.2-.2-.9-.3-1.8-.4-2.6-.2-1.3-.5-2.5-.7-3.8-.2-1,.1-1.6,1.4-1.5,1.1.1,1.9-1,1.8-2.3-.1-1.4-1.3-.8-2-.9-.3,0-.8.5-1,.9a6.03782,6.03782,0,0,0-.5,1.6c-.9-.9-1.7-1.6-2.6-2.4a9.1773,9.1773,0,0,1,.9-2.8c.4-.5,1.6-.2,2.4-.4.4-.1.9-.7.8-.9a34.63067,34.63067,0,0,0-1.8-6.5,3.51618,3.51618,0,0,1-.5-2.4,3.64,3.64,0,0,0,.3-2,6.00311,6.00311,0,0,0-1.3-2.5c-.6-.6-1.3-.3-1.4.7-.1.8-.2,1.6-.3,2.3a2.86527,2.86527,0,0,1-.8-2c.6-2.2.3-3.1-2-3.3a45.8334,45.8334,0,0,0-6.4.4,8.33163,8.33163,0,0,0-1.5.4,8.65035,8.65035,0,0,0,.7,1.7c.3.5,1.1,1.1,1.1,1.5-.3,1.8.7,1.9,2,1.7a7.77434,7.77434,0,0,1,1.3.1c-.9.9-1.1,2.6-2.7,1.3-.2-.2-.7.1-1.1.1-.5,0-1,.2-1.4,0a7.48612,7.48612,0,0,1-1.8-1.3c-.7-.5-1.4-.6-1.9.3-.9,2-.1,3.1,2.1,3.3a50.66691,50.66691,0,0,1,5.6.5,2.65125,2.65125,0,0,0,3.2-2.6,3.44562,3.44562,0,0,1,.5-1.1c.1,1.4.2,2.5.3,3.5,1-.4,1.9-.8,2.9-1.2.2-.2.5,0,.6.4.4,1.3.7,2.6,1.1,3.8.4,1.7,0,2.5-1.5,3.4-1.8,1-2.1,1.7-1.6,3.6-.4-.2-1-.4-1-.7-.1-1.3,0-2.7,0-4.1.9-.1,1.7-.2,2.8-.4-.5-.6-.8-1.3-1.2-1.3a12.21187,12.21187,0,0,0-2.7.1,4.33123,4.33123,0,0,1-.1-.5c-.2-.5-.4-1.3-.7-1.4a2.20426,2.20426,0,0,0-1.8.3c-.3.3.1,1.2.2,1.8.1.3.3.5.4.8,1,1.9.5,5.1-.8,6.8a3.32183,3.32183,0,0,0-.7,2.1,15.39536,15.39536,0,0,0,1.5,3.5,5.47959,5.47959,0,0,0,1.6,1.8c1.2.9,1.7.6,2.2-.8.1-.4.7-.7,1.1-.8.4,0,1.1.4,1.1.6-.1,1.7,1.1,2.7,1.8,4,.8,1.4.3,2.1-1.2,2.4a2.16459,2.16459,0,0,0-1,.8,16.28478,16.28478,0,0,0,1.1,1.7,17.40911,17.40911,0,0,0,1.4-1.2c.4-.3.2-.8.2-1.1m82.9-29.9a15.47926,15.47926,0,0,0-1.5,2.8,33.46283,33.46283,0,0,0-.5,6.3c.2,4.8.7,9.6,1.1,14.5v1.5c-.2,0-.3.1-.5.1a3.32835,3.32835,0,0,1-.6-1c-.3-2.6-.5-5.2-.7-7.8a11.15174,11.15174,0,0,0-.5-3.1,2.4926,2.4926,0,0,0-1.5-1.1c-.3-.1-.9.6-1,1.1-.3,1.2-.4,2.4-1.9,2.8a1.34634,1.34634,0,0,0-.5.9c0,.2.5.6.7.6,1.5-.3,1.6.8,1.9,1.8.8,2.9-.6,6.1,1.5,8.9-1.9,0-3.6.1-5.2,0-1.1-.1-1.6.2-1.5,1.4a16.35125,16.35125,0,0,0,.2,2.2,8.66931,8.66931,0,0,0,1.4,2.7,1.56937,1.56937,0,0,0,1.5.3c.3-.1.4-.9.5-1.4a3.75108,3.75108,0,0,0,.1-1,23.20086,23.20086,0,0,0,1.6,3.6c.3.5,1.5,1.1,1.9.9a1.58853,1.58853,0,0,0,.6-2.4c-.7-1-1.5-2-2.4-3.2.4-.4,1-.8,1.5-1.3v.6c.6.3,1.3.9,1.7.7.9-.4,1.5-1.2.2-2.1-.3-.2-.3-.9-.5-1.4h1.6c.2,2.7.3,5.3.5,7.9v1.9c0,1.3.6,1.7,1.7.9,2.1-1.6,2.7-4.1,3.6-6.4a.60116.60116,0,0,0-.1-.4c-.2-1.2-.5-2.3-.8-3.5a16.58947,16.58947,0,0,0-.6-1.6,4.33055,4.33055,0,0,0-.5.1,26.13783,26.13783,0,0,0-.6,2.7c-.1,1.1.1,2.3,0,3.4,0,.4-.4.7-.6,1.1-.2-.4-.6-.8-.6-1.1-.1-7.5-.1-15-.2-22.5,0-2-.2-3.9-.3-5.9a1.88379,1.88379,0,0,1,.2-.8c1.2-1.9,1.2-2-.90005-3.7m39.1,98.3a7.36905,7.36905,0,0,1,3.7,2.5,1.52389,1.52389,0,0,0,1,.6,5.838,5.838,0,0,0,5.1-7.4c1.1-.6,1.6-2.3.8-2.9a41.36585,41.36585,0,0,0-6.1-4.2,35.36024,35.36024,0,0,0-5.5-1.8,21.30351,21.30351,0,0,0-11.2-.3,2.7317,2.7317,0,0,0-1.9,1.7,3.73263,3.73263,0,0,0,1.3,3.9,17.08641,17.08641,0,0,1,2.1,2.6,11.31988,11.31988,0,0,0,3.1,2.5,26.40881,26.40881,0,0,0,4.9,2.2,20.12517,20.12517,0,0,0-.1,3.4,1.08522,1.08522,0,0,0,.8.8,1.57476,1.57476,0,0,0,1.3-.4,8.46006,8.46006,0,0,0,1.4-1.7c-.19992-.1-.39993-.6-.69992-1.5m-95.2-81.8c0,3.4-.6,6.5,1.4,9.4a26.035,26.035,0,0,1,2.5,3.3c1.8,3.5,7.8,6.3,12.5,4.3a1.14932,1.14932,0,0,0,.6-.9c0-1.6,1-2.6,2.1-3.6a8.51206,8.51206,0,0,0,1.8-2.7,1.55452,1.55452,0,0,0-.2-1.5,4.23611,4.23611,0,0,1-1.8-4.1,1.72222,1.72222,0,0,0-1-1.2c-.4-.1-1.1.3-1.5.6s-.6.9-1,1.3-.9,1-1.2.9c-2-.3-4.3.3-6-1.5-.9-.9-1.8-1.1-2.5.3a1.79359,1.79359,0,0,1-.5.7l-1.5.9a6.91617,6.91617,0,0,1-1-1.9,1.93393,1.93393,0,0,1,0-1.3c-.2-1.6-1-2.4-2.7-3m58.8,118.2a50.6838,50.6838,0,0,0,.3,5.5,9.24479,9.24479,0,0,0,1.6,2.9,13.04443,13.04443,0,0,0,2.3-1.5,23.8188,23.8188,0,0,0,6.1-11.5c.4-1.8.7-3.5-.5-5.4-1.6-2.5-3.4-3.5-6.2-3.2-.9.1-1.3.3-1.6,1.2-1.3,4-2.3,7.9-2,12m-52.9-130a3.18468,3.18468,0,0,0-.6-.8c-.6-.8-3.2-1-3.3-.1-.2,1.3-1.1,1.6-2.1,1.7-.9.1-1.2.7-1.2,1.5.1,1.7,0,3.5,0,5.2a3.67542,3.67542,0,0,0,1.7,3.3,28.50248,28.50248,0,0,0,3,1.6c1.1.5,1.9.4,2.3-.9.2-.5.8-.8,1.3-1.3a4.48773,4.48773,0,0,1,1.1,1.3c1,2.5,2.6,3.4,5,2.9a1.519,1.519,0,0,0,1.4-1.9c-.1-1.1-.7-1.3-1.6-1.3-1.1.1-1.8-.3-1.9-1.5s-.6-2-2.1-1.9c-.3,0-1-.7-.9-1.1.1-.8-.9-2.2.7-2.5,1.1-.2,1.2-.7,1.1-1.5v-2.1c.1-1.4-.5-2.1-1.9-2.5-1.5-.2-1.5.9-2,1.9m56.7,148.4-.3-.6c-.4,0-.9-.1-1.3-.1-4.1.4-7.9-.8-11.8-2.2a9.66333,9.66333,0,0,1-4.7-3.6,20.07974,20.07974,0,0,1-4-9.8c-.4-3.1-.3-6.3-.5-9.5-.2-2.3-.4-4.5-.7-6.8a48.95436,48.95436,0,0,0-1.3-5.5,2.01213,2.01213,0,0,0-.9-1.1,5.53664,5.53664,0,0,0-1.8.2,11.62907,11.62907,0,0,0,.4,1.8,10.14339,10.14339,0,0,1,1,2.4c.4,3.3.6,6.5.9,9.8a1.85392,1.85392,0,0,0,.2.7c1,1.3.8,2.8.8,4.3a35.41833,35.41833,0,0,0,.3,7.3c1.6,6.6,6.5,10.3,12.2,12.9.8.4,2,0,3.1.1,2.3.1,4.7.2,7,.3.5.10007,1-.3,1.4-.59995m-67.4-90.7c1.9.1,2,.1,1.9-1.8-.1-2.5-.7-5.1-.6-7.6.1-3.6.2-7.3,2-10.6a9.38544,9.38544,0,0,0,.6-2.4,2.281,2.281,0,0,1,.6-1.2c2.2-1.3,2.8-3.7,4.2-5.6.2-.3.3-1.2.1-1.3a2.5437,2.5437,0,0,0-1.5-.3c-.2,0-.3.7-.4,1.1-.2.4-.3.9-.6,1.1-1.4,1.3-2.8,2.7-4.3,3.9-3,2.5-4,5.5-3.6,9.4.4,4.3,1,8.6-.6,12.9-.7,1.9-.1,2.3,2.2,2.4m30.7.4c-.1.1-.2.1-.4.2.3.4.6,1.1.9,1.1.5,0,1-.5,1.4-.8a4.81077,4.81077,0,0,0,.9-1.1,6.03348,6.03348,0,0,1,.8-.8c-.4-.1-.8-.4-1.1-.4-1.2.3-1.4-.3-1.6-1.3-.8-3.1-1.7-6.2-2.6-9.3a3.685,3.685,0,0,1,.1-1.5c.6-1.5,1.4-2.9,1.9-4.4a8.12855,8.12855,0,0,0-.1-2.2,7.94431,7.94431,0,0,0-2.2.6,6.8156,6.8156,0,0,0-1.9,8.7,4.50673,4.50673,0,0,1,.3,1.1c.7,3,.8,6.2,3.1,8.6a3.31459,3.31459,0,0,1,.50006,1.49994m24.2-23a7.84311,7.84311,0,0,0-3.9-4.1,8.58563,8.58563,0,0,0-1.7-.3,7.01752,7.01752,0,0,0-.1,2.5c.1.3.7.7,1.1.9.6.3,2-.4,1.9,1s-1.4.7-2.1.9h-.1c-1.5.1-2,.6-1.5,1.9.2.4,1.3.5,1.9.7a6.117,6.117,0,0,0,1.2.5c-.3.4-.6,1-1,1.2-.7.5-1.7.7-2.4,1.2-.3.2-.4.9-.4,1.4a1.27543,1.27543,0,0,0,.5.7,8.80843,8.80843,0,0,0,3.3-.6,14.638,14.638,0,0,0,6-7.4,12.28839,12.28839,0,0,0,.2-1.3c-1.1.3-2,.5-2.9.8m23.9-39.2c-.2.8-.5,1.7-.7,2.5-.1.5.2.9.3,1.4.6-.2,1.5-.3,1.7-.8a4.022,4.022,0,0,0,.3-2.4c-.2-.7-1.1-1.3-1.6-1.9,0-.1-.2,0-.3,0-2.3-.2-2.6-.7-2-3.1,1.6.5,3.1,1,4.7,1.5.1-.1.2-.3.3-.4-.2-1-.4-1.9-.7-2.9-.7-1.9-2-2.3-3.3-.7a2.1063,2.1063,0,0,1-2.7.7c-.3-.1-.6-.1-1.1-.2v3.8c0,.5.3,1,.2,1.4-.1,1.7-.2,3.3-.3,5,0,.9.1,1.6,1.3,1.5,1.1-.1,1.5-.5,1.4-1.6a20.85081,20.85081,0,0,1,0-2.5c0-1.9.3-2.1,2.5-1.3m-60.3,95.5c.7-.3,1.4-.4,1.6-.8,1.3-2,3-4,3.5-6.3.8-3.4.6-7,.9-10.5.1-.9-.3-1.1-1.1-1.1-1.2,0-1.9.4-2,1.6-.2,2.3-.2,4.7-.5,7a16.55745,16.55745,0,0,1-1.4,5.4,6.85311,6.85311,0,0,0-1,4.7m-8.8,49.3.4.4c.4-.1.9-.1,1.2-.4,3.9-3.1,7.7-6.2,11.5-9.3.2-.1.3-.4.4-.6a21.72317,21.72317,0,0,0,.7-2.4c-.2-.1-.3-.3-.5-.4-.9.7-1.9,1.3-2.8,2-1.8,1.4-3.7,2.8-5.5,4.3a45.82372,45.82372,0,0,0-4.6,4.2,9.27437,9.27437,0,0,0-.8,2.2m12.5-29.4c-.3,1.4-.5,2.7-.7,4-.1.5,0,1.1-.2,1.4-1.7,2.7-3.1,5.5-5.6,7.6a3.02942,3.02942,0,0,0-1,2.2c-.1.9-.3,1.3-1.2,1.5a2.4537,2.4537,0,0,0-2.1,2.3c2.3.6,2.7.4,3.4-1.6a2.09248,2.09248,0,0,1,.4-.6c2.1-2.3,4.2-4.7,6.2-7,1.2-1.3,2.2-2.7,1.7-4.7-.1-.4.2-.8.4-1.3a3.82566,3.82566,0,0,0-1.3-3.8m50.1-101.9h0c.1-2,.1-4.1.1-6.1,0-.9-.1-1.6-1.2-1.6s-1,.7-1,1.4c0,1.9.2,3.8-1,5.4a.30414.30414,0,0,0,0,.4c.3,2.6.7,5.1,1,7.7.1,1.1.8,1.1,1.4.6a2.12683,2.12683,0,0,0,.7-1.5v-6.3m-88.1-.9c.1-.1.2-.1.4-.2a5.65177,5.65177,0,0,0,0-1.3c0-.2-.4-.5-.6-.5s-.7.3-.7.4c0,2.1-.6,4.4.8,6.1a6.97552,6.97552,0,0,1,1.7,5.2c-.2,2.5,1.4,3.7,2.7,5.2a2.125,2.125,0,0,0,1.6.2,1.622,1.622,0,0,0,.2-1.3c-1-2.1-2-4.2-3-6.4a19.45086,19.45086,0,0,1-.8-2.2c-.3-.9-.5-1.9-.9-2.8a25.49257,25.49257,0,0,1-1.4-2.4m33.3,84.5a11.78028,11.78028,0,0,0-2.5,1.9c-1.8,2.2-3.5,4.5-5.2,6.8a10.4393,10.4393,0,0,0-1.1,2.4,1.15953,1.15953,0,0,0,.4,1,2.5188,2.5188,0,0,0,3.5-2.5c0-1-.1-1.9,1.3-2,.2,0,.6-.5.6-.7-.1-1.4.8-1.9,1.8-2.5,1.7-1,2-2.1,1.2-4.4m-27.6,93.9c-.3-.2-.7-.7-1.1-.8a1.84994,1.84994,0,0,0-1.2.8,10.94814,10.94814,0,0,0-1,1.1c-.3.3-.8.6-1.1.9-1.4,2.1-2.7,4.2-4,6.3a3.685,3.685,0,0,0-.1,1.5c.5,0,1.2.1,1.5-.2,2.9-2.2,4.4-5.4,6.5-8.3.3-.2.3-.6.5-1.3m38.7,8.4.6.3a21.80345,21.80345,0,0,0,2.5-2.8c.4-.6.7-1.5-.4-2-2.3-.9-7.4.3-9.3,2.3a16.67247,16.67247,0,0,0,1.2,1.6,2.55585,2.55585,0,0,0,3.2,0c.6-.7,1.3-1.4,2.1-2.2.09995,1.2.09995,2,.09995,2.8m22.3-195.5c-1.7,0-1.9.2-1.9,1.5,0,1.9,1.4,4-.4,5.8-.2.2-.1.8-.1,1.2.2,1.3,1.4,1.2,2.3,1.4,1,.2,1-.6,1.1-1.2.1-.9,0-1.8.1-2.7a1.3562,1.3562,0,0,1,.6-1.1c.8-.3.8-.7.5-1.4a27.17959,27.17959,0,0,0-1.1-2.5,4.70042,4.70042,0,0,0-1.1-1m14.9,19.1a9.04293,9.04293,0,0,0,.1,2.8c.1.6.8,1.2,1.3,1.7a6.10089,6.10089,0,0,0,1.2-1.6,11.84422,11.84422,0,0,0,.2-2.7c-.1-3.4-.4-3.8-3.8-4.4-.3-.1-.9,0-.9.2a12.42194,12.42194,0,0,0-.4,3.3c0,.2,1.2.4,2.3.7m-111.7-28.7c-1.9-2.5-5.3-2.4-8.4-3.8a3.85054,3.85054,0,0,0,2.1,3,26.83073,26.83073,0,0,0,4.7,2.6,11.65508,11.65508,0,0,0,3.8.5,1.208,1.208,0,0,0,.7-.7c-.1-.7-.1-1.6-.5-2-.3-.3-1.3.1-2.4.4m68.4,118c.1,0,.2.1.3.1a5.53664,5.53664,0,0,0,.2,1.8,1.76455,1.76455,0,0,0,.9.8,1.44542,1.44542,0,0,0,1-.7c.4-1.3.8-2.7,1.1-4.1a45.127,45.127,0,0,0,1-5.3,1.1727,1.1727,0,0,0-.5-1.1,1.8405,1.8405,0,0,0-2.5,1.7c-.2,1.1-.2,2.3-.3,3.4a3.59491,3.59491,0,0,1-.2,1.1c-.4.8-.7,1.6-1,2.3m-41.8-92.9v5c0,.2,0,.6.2.7,1,1.1,1,2.5,1.2,3.9.1.5,1.2.8,1.8,1.2.2-.4.7-.8.7-1.3-.1-1.2-.3-2.3-.5-3.5s-.6-2.3-.7-3.5c-.3-1.9-.5-2.1-2.7-2.5m72.6,5.9c-.2-.5-.2-.8-.4-.9-1.8-1.3-2-3.2-1.7-5.2a4.81843,4.81843,0,0,0,0-1.2c0-.7-.1-1.3-1.1-1.2-.7.1-1.7-.2-1.7,1.1,0,1.5-.2,3.1-.2,4.6a2.528,2.528,0,0,0,2,2.8c1,.1,1.9,0,3.1,0m-27.1,9.8c-.1-1,.2-2-1-1.7a11.85159,11.85159,0,0,0-4.2,2.1c-.5.5.2,2.2.4,3.4a.36736.36736,0,0,0,.1.3c.3.9.8,1.1,1.6.6a7.5734,7.5734,0,0,0,3.1-4.7m31.9-26.4v-7.4a1.44246,1.44246,0,0,0-.7-1.1c-.6-.1-1.6-.4-1.8.7-.3,2-.6,4-.8,6a1.98359,1.98359,0,0,0,.6,1.3c.9.2,1.8.3,2.7.5m5-8.2a9.73275,9.73275,0,0,0,1.1,1.5,1.8811,1.8811,0,0,0,1.3,0,3.39806,3.39806,0,0,1,2.8-2.8c.6-.1,1.1-.6,1.6-.8.5-.1,1,0,1.5-.1,1.4-.3.8-1.5.8-2.3,0-.1-1.2-.6-1.3-.4-1.4,1.7-3.6,1.6-5.2,2.9a2.097,2.097,0,0,1-1.1.4c-1-.2-1.4.4-1.5,1.6m-29.6,98.7c1.3,2.2,2.5,4.2,3.8,6.2.2.3,1.1.3,1.6.4a4.14491,4.14491,0,0,0,.2-1.5c-.6-1.4-1.3-2.8-2-4.2s-1.8-1.5-3.6-.9m51.7-5.1c.2-.2.5-.3.7-.5-.5-.7-1-1.4-1.4-2.1a.90146.90146,0,0,1-.1.5c-1.6.5-3.3,1-4.9,1.6-.4.1-.9.6-.9.9a1.6935,1.6935,0,0,0,.7,1.2,11.277,11.277,0,0,0,1.8,1.2c.3.2.7.5,1.1.8a5.73331,5.73331,0,0,0,.4-.7c.2-1,.4-2,.6-3.1.2-1,.9-1.3,1.7-.7l.3.9m-122.4-98.2c.1-1.3-1.1-2.3-3.2-2.4-1.6,0-1.2,1.5-1.4,2.3-.3.9,1.4,2.5,2.4,2.5,1.1.2,2.1-.9,2.2-2.4m82.5,29.1v1.6c0,.6-.1,1.4.9,1.3.9,0,1.6-.3,1.7-1.3,0-.6-.3-1.1-.3-1.7,0-.5.2-1,.2-1.6a5.84513,5.84513,0,0,0,.2-1.8c-.1-.3-1-.5-1.4-.3a2.33525,2.33525,0,0,0-1,1.2,13.80866,13.80866,0,0,0-.3,2.6m-65.3,13h0v-1.2c0-1.4-.4-1.7-1.7-1.4-1.7.4-2.1,2.1-.7,3.9.4.6,1.2.8,1.8,1.2l.6-1.8,0-.7m44.5,31.4a5.02492,5.02492,0,0,0-4.6,3.4,4.73471,4.73471,0,0,0-.1,1.7,3.59105,3.59105,0,0,0,1.8-.2c1.8-1,2.3-2.9,2.9-4.9m-72.3.7q.45,2.4.9,4.8c1.3-.7,2.5-1.2,3.5-1.8.3-.2.3-.8.3-1.2,0-.3-.4-.6-.6-.7-1.2-.4-2.4-.7-4.1-1.1m87.4,35.9c-.7.9-1.5,1.6-1.4,2a9.53863,9.53863,0,0,0,1.4,3.5c.2.3,1.3.2,1.9,0,.2-.1.3-1.1.1-1.6-.5-1.2-1.2-2.4-2-3.9m4.7-66.6c.1-.1.2-.1.4-.2-.6-1.1-1.1-3.1-1.7-3.2-1.5-.1-1.5,1.7-2,2.9,0,.1-.1.2-.1.3.1,1.4,1.2,1.4,2.2,1.5,1,.2,1.3-.4,1.2-1.3m19.9-30.8c.1.1.2.1.3.2,0,.3-.1.5,0,.7a4.12937,4.12937,0,0,0,.7,1.1c.2-.3.5-.7.7-1s.2-.8.3-.9c2.2-.3,1.4-2,1.7-3.3.1-.3-.3-.9-.5-.9a1.598,1.598,0,0,0-1,.5,12.49236,12.49236,0,0,0-.9,1.2,18.34608,18.34608,0,0,1-1.3,2.4m-83.1,186.7c-1.5,0-4.2,2.7-3.8,3.7.1.4,1.3.9,1.4.8a29.70886,29.70886,0,0,0,2.8-3.4c.1-.3-.3-.8-.4-1.1m30.2-223.1c-2.2,1.1-3.4,7.8-2,10.3a6.71947,6.71947,0,0,0,.3-2.8,7.19321,7.19321,0,0,1,1.2-5.5,9.72709,9.72709,0,0,0,.5-2m17.8,66.5c.6-.1,1.8.3,1.7-1.2-.1-1.2-1.3-2.5-2.5-2.3-1.5.3-.8,1.6-.9,2.5-.3,1.2.7,1.1,1.7,1m15.9,2.3c-.7,2.6-.3,3.5,2.1,4.2,1.5-2.8,1-3.8-2.1-4.2m-12.1-7c-.1,0-.3.1-.4.1.1,1.2,0,2.3.2,3.4.1.5.9.9,1.4,1.3.4-.5,1-.9,1.2-1.5a2.27635,2.27635,0,0,0-.4-1.6c-.6-.6-1.4-1.1-2-1.7m-8.5,123.9a7.19313,7.19313,0,0,0-2.1,1.2c-.3.3,0,1.2.1,1.8a9.29109,9.29109,0,0,0,2.9-.5c.5-.2.6-1.1,1-1.7a18.19418,18.19418,0,0,0-1.9-.8m3-88.5c0-.4.1-.7,0-.8-1.1-.9-.5-1.9-.3-3,.1-.2.3-.6.2-.7a4.89416,4.89416,0,0,0-1.2-1.3c-.1-.1-.8.2-.9.5a4.33145,4.33145,0,0,0,2.2,5.3m-28.4,88.3c2.5-.4,3-1.2,2.8-3.6,0-.3-.3-.9-.5-.9-.4,0-1.2.2-1.3.5-.3,1.3-.6,2.6-1,4m-15.2-152.1c.4-2.6,0-3.4-2-3.5a2.22571,2.22571,0,0,0-1.3.5,1.65063,1.65063,0,0,0,.5,1.5,18.43718,18.43718,0,0,0,2.8,1.5m56.2,30.4c-.5-.5-.8-1.2-1.3-1.3-1.1-.3-1.3.6-1.4,1.4a8.3299,8.3299,0,0,0,.3,2.2c.2.8.9.9,1.3.3.4-.7.6-1.5,1.1-2.6m25.6-22.8a1.42125,1.42125,0,0,1-.6.2q-.15,1.65-.3,3.3c.6,0,1.2.2,1.7-.1.6-.3,1-1,1.5-1.5-.7-.6-1.5-1.2-2.3-1.9m-19.1,27.1c.3-.4.9-.7,1-1.1.2-1.4-.8-3.1-1.4-2.7a3.54992,3.54992,0,0,0-1.3,2.2c-.4,1.1.4,1.5,1.7,1.6m-10.8,53.4c-.6-.2-1.3-.4-2-.6-.3-.1-.9,0-.9.2a2.05407,2.05407,0,0,0,0,1.1,3.04477,3.04477,0,0,0,2.7,1.8,24.95691,24.95691,0,0,1,.2-2.5m61,5.4a15.08041,15.08041,0,0,0-2.6-1.2c-.4-.1-.9.4-1.4.6.2.5.3,1.2.7,1.5,1.1.6,2.1,0,3.3-.9m-153.8-23.6c-1.9-.7-2.3-.5-3.4,1.3,2,1.5,2.7,1.2,3.4-1.3m126-47.5c-.8.6-1.4,1.1-2,1.5.6.5,1.1,1.2,1.7,1.3.3.1,1-.8,1.2-1.4.2-.2-.5-.7-.9-1.4m-101.9-16.1c-.5.5-1.2.9-1.2,1.3s.8,1.3.9,1.2a21.40863,21.40863,0,0,0,1.9-1.3,13.1849,13.1849,0,0,0-1.6-1.2m-16.2,58.7c.5-.5.9-3.3.4-3.8a1.16286,1.16286,0,0,0-1-.2,1.12559,1.12559,0,0,0-.5.8,30.05773,30.05773,0,0,0,1.1,3.2m11-61.8a2.1872,2.1872,0,0,0,.3.5c1.1-.4,2.1-.7,3.2-1.2.1,0,0-.7-.2-1a1.76919,1.76919,0,0,0-.8-.5c-.8.7-1.6,1.5-2.5,2.2m11.5,188.8c-1.8.3-2.6,1-2.4,2.3,2.2-.2,2.8-.8,2.4-2.3m19.8-150.9c.2.1.3.1.5.2.6-1.3,1.3-2.5,1.9-3.8a.758.758,0,0,0-.2-.4c-.2-.1-.5-.1-.5,0a32.06708,32.06708,0,0,0-1.9,3.1c0,.2.2.6.2.9m36.3,26.7a7.92866,7.92866,0,0,0-1.2-1.3,5.34616,5.34616,0,0,0-1.3,1.3c-.1.1.6,1.1.8,1,.5,0,.9-.5,1.7-1m6.6,118.3c.5-.7,1.1-1.1,1.1-1.5,0-.3-.7-1-.9-.9a2.66057,2.66057,0,0,0-1,1.1c-.2.2.3.7.8,1.3m-55.6,1.7c-.1-.2-.1-.4-.2-.6-.8.3-1.5.5-2.3.8.2.4.2,1.1.5,1.2,1.4.5,1.5-.7,2-1.4m106.1-103.1c0-.2.1-.4.1-.6-.7-.2-1.5-.6-2-.4-.4.1-.4,1.2-.6,2.2a19.96992,19.96992,0,0,0,2.5-1.2"/><path d="M111.53767,154.73105a7.454,7.454,0,0,1-1,2,48.20408,48.20408,0,0,1-4.4,3.5c-.2.2-.7.1-1,.1-2.7-.2-5.4-.4-8-.7a10.09827,10.09827,0,0,1-3.3-1.2c-.8-.4-.6-1.5.4-1.8,3.8-1.3,7.6-2.8,11.7-2.9a40.67763,40.67763,0,0,1,4.9.5c.2,0,.5.3.7.5"/><path d="M110.03767,126.93106a5.28626,5.28626,0,0,1,.5,4.5,4.69946,4.69946,0,0,0,.9,4.8c1.9,2.4,1.8,2.4,0,4.9-.8,1.1-1.6,2.2-2.5,3.4l-.3.3c-1.4-1.2-2.6-2.2-2.3-4.3.3-1.7,0-3.3.9-5a40.79194,40.79194,0,0,0,2.3-6.7,12.38747,12.38747,0,0,0,.5-1.9m-1.8,14.3c.9-.7,1.9-3.4,1.6-4.1a.89.89,0,0,0-1.6,0c0,1.3,0,2.6,0,4.1"/><path d="M93.43767,123.33106v-3.9a2.57876,2.57876,0,0,0-1.7-2.7,2.18869,2.18869,0,0,1-.8-1.4c-.1-1.9-.1-3.8-.1-5.7a11.27384,11.27384,0,0,0-.3-1.8c-.2-1.1-.7-1.4-1.8-1a8.33037,8.33037,0,0,1-1.5.4c-.1-.2-.2-.3-.3-.5a12.57,12.57,0,0,1,2.7-2c1.2-.6,1.9-.1,1.9,1.3,0,2.1,0,4.3-.1,6.4a4.39158,4.39158,0,0,0,1.3,3.6,6.83006,6.83006,0,0,1,1.6,6,5.02333,5.02333,0,0,1-.5,1.3l-.4,0"/><path d="M252.73765,155.13108a5.97254,5.97254,0,0,1-.6-1.1c-.3-2.5-.4-5.1-.6-7.6a1.26833,1.26833,0,0,1,.1-.6c.4-.7.8-1.3,1.2-2a14.158,14.158,0,0,1,.4,2c.2,2.4.3,4.8.4,7.1a14.158,14.158,0,0,1-.4,2c-.1.1-.3.1-.5.2"/><path d="M143.73765,273.43106c-.4-.2-.7-.2-.9-.4a2.17745,2.17745,0,0,1-.5-.8c.3-.2.5-.5.8-.5,1.2,0,2.5-.1,2.5,1.7a1.797,1.797,0,0,0,.4.9c1,1.5.9,2.2-.5,3.3-.9-.7-1.8-1.3-2.6-2-.2-.1-.1-.6,0-.9a6.55327,6.55327,0,0,1,.8-1.3"/><path d="M104.13768,112.23107a2.4398,2.4398,0,0,1,1.5,2.5c-.2,2.9-.4,5.8-.5,8.8,0,.3-.1.6-.1.8h-.4v-3.9c0-.9,0-1.7-.9-2.2a.82218.82218,0,0,1-.4-.6c0-1.7-.4-3.6.8-5.4"/><path d="M269.63768,148.43106a12.4694,12.4694,0,0,1-1.9,9.6,13.89759,13.89759,0,0,1,1.9-9.6"/><path d="M257.63768,142.43106c-.2-2.3-.4-4.3-.4-6.3,0-.2.9-.6,1.4-.6.3,0,.9.5.9.8,0,2,.3,4.2-1.9,6.1"/><path d="M253.73765,166.73105a22.67485,22.67485,0,0,0,.6-2.5,19.52384,19.52384,0,0,0,.2-2.3,24.31749,24.31749,0,0,1,0-2.7c0-.3.3-.5.5-.8.2.2.7.4.7.6.1,2.3.1,4.6,0,6.8,0,.5-.9.9-1.4,1.3-.1-.2-.4-.3-.6-.4"/><path d="M221.23765,211.23105c-1.1,3.3-2.3,6.6-3.6,10.3-.9-1.4.7-7.3,2.3-9.9a2.55284,2.55284,0,0,1,1-.7q.15006.30006.3.3"/><path d="M270.73765,138.83106c-.3,1.3-.6,2.5-.9,3.8-.2,1-.3,2.1-.6,3.1-.1.3-.4.5-.6.7a.88687.88687,0,0,1-.5-.4c-.9-1.8.5-6.2,2.2-7.2.1-.1.2,0,.4,0"/><path d="M270.63768,130.93106c.2-1,.2-2,.5-3,.1-.4.8-.9,1-.8a4.49469,4.49469,0,0,1,1.6,1.2s-.4.6-.6.9a7.02377,7.02377,0,0,1-.6.9q-.6.6-1.2,1.2a4.34431,4.34431,0,0,1-.7-.4"/><path d="M93.53767,129.53107a8.00032,8.00032,0,0,1,1.3,2.1,15.44088,15.44088,0,0,1,.5,3.1,2.118,2.118,0,0,1-.3.7c-.2-.1-.6-.2-.7-.4-.5-1.7-.9-3.5-1.4-5.2l.6-.3"/><path d="M99.43767,117.83106a3.94182,3.94182,0,0,1,.5,1.4c0,1.1-.1,2.2-.2,3.3,0,.3-.3.5-.5.8-.2-.2-.6-.5-.5-.7,0-1.5.1-3,.2-4.5a.54993.54993,0,0,1,.5-.3"/><path d="M133.23765,166.83106c-1.3.2-2.6.5-4,.7.1-2.1.4-2.4,1.9-1.8a16.557,16.557,0,0,0,2.1.6v.5"/><path d="M261.03767,160.63108c-.2-1.4.8-2.6,1.9-2.4a.70394.70394,0,0,1,.5.4c-.1.4-.1,1-.4,1.2-.6.3-1.3.5-2,.8"/><path d="M89.23765,134.93106c-.1-1.3-.1-2.2-.1-3.2a.82229.82229,0,0,1,.4-.6c.2-.1.5.1.6.2.4.5,0,2.8-.9,3.6"/><path d="M184.93767,97.33106c.3-.1.8-.4,1.2-.3a1.1875,1.1875,0,0,1,1,.8c.3.7.5,1.5,1.4,1.2a20.622,20.622,0,0,0,2.6-1.2c-.5-.8-.8-2-1.5-2.4-1.4-.8-1.1-1.7-.7-2.7a1.3097,1.3097,0,0,1,2.3-.4c.8,1.2,1.5,2.6,2.2,3.9,0,.1.1.2.1.3-1.2,1.9.1,3.4.6,5.1.4,1.1-1.1,3-2.4,3.3a10.67934,10.67934,0,0,1-2.5.3c-.7-.1-1.7-.4-1.9-.9a43.77,43.77,0,0,1-2.4-7"/><path d="M133.33766,109.23107c2-.4,3.8-.8,5.7-1.2-1.9,2.7-3.8,3.2-5.7,1.2"/><path d="M131.73765,89.73107c.9-.3,1.8-.6,2.8-1,0,.2.1.9,0,.9a26.95369,26.95369,0,0,1-2.8.4v-.3"/><path d="M270.43767,180.03107c-1.7,1.1-3.2,2.2-5.3,2.2a55.11262,55.11262,0,0,0-7.1.6,3.73321,3.73321,0,0,1-3.5-1.5c-.7-.9-1.8-1.5-2.4-2.4-1.2-1.5-.9-2,1-2.3a23.46867,23.46867,0,0,1,12.3,1.5c1.5.59995,3.2,1.3,5,1.9"/><path d="M179.13768,116.23107h3.7c.3,0,.8-.1,1,.1.5.5.9,1.1,1.4,1.7-.4.3-.9.6-1.3.9a8.88057,8.88057,0,0,1-4.8,1.3,8.57088,8.57088,0,0,1-4.6-1.9c-.4-.3-.6-1.1-.9-1.6a8.80072,8.80072,0,0,1,1.5-.5Z"/><path d="M172.43767,102.23107c-1-.7-2.1-1.1-2.3-1.7-.2-.7.3-1.7.6-2.6.1-.3.8-.4,1.2-.3.2,0,.5.6.5.9,0,1,0,2.1,0,3.7"/>
    </g>
    <g id="name">
        <path d="M6.03767,214.93106c.3-5.3,2.6-9.2,7.2-11.6,1.1-.6,2.3-1.2,3.4-1.8a5.327,5.327,0,0,1,4.6-.4,18.45691,18.45691,0,0,0,2.3.4,8.31669,8.31669,0,0,1,7.7,6.3c.7,2.8,1.5,5.6,2.1,8.4a18.16141,18.16141,0,0,1,.2,5.2c-.2,2.1-1.3,2.5-3.1,1.4a13.443,13.443,0,0,1-1.4-1.1,1.79054,1.79054,0,0,0-3,.5c-.8,2.1-2.2,2.6-4.2,2.1a5.70155,5.70155,0,0,0-1.3-.1c-2.7,0-2.7,0-3.5,2.6-.8,2.3-1.5,2.6-3.6,1.2-3.1-2.1-4.8-5.3-6.1-8.7-.5-1.4-.9-2.9-1.3-4.4m21.1-.4c-.2-1.3-.4-2.7-.7-4a4.98586,4.98586,0,0,0-4.4-4.1c-5.5-.8-10.2,4.8-8.4,10,.6,1.9,1.4,2.6,3.1,2.4a3.508,3.508,0,0,0,2-1.2c.9-1.3,1.9-1.9,3.5-1.2a9.23211,9.23211,0,0,0,2.5.5c1.7.2,2.4-.6,2.4-2.4"/><path d="M19.03767,170.63108a10.818,10.818,0,0,0,0,1.8c.1.8.1,2,.5,2.3,1.3.7,2.8,1.2,4.3.3.2-.2.5-.3.7-.5,1.3-1.1,2.5-.7,3,1a18.6454,18.6454,0,0,1,1,3.9,10.3324,10.3324,0,0,1-.2,3.5c-.6,1.7-2.4,1.8-3.7.5a16.7304,16.7304,0,0,0-3.4-3.1c-1.5-1.1-2.7-.8-4.1.4-1.9,1.6-2.6,1.5-3.7-.7a7.46525,7.46525,0,0,0-9-3.7c-1,.4-1.5.1-2.2-.6-3-3.4-3-7.2.1-10.6a2.2325,2.2325,0,0,1,1.4-.3c1,.1,2,.4,3.1.6a6.546,6.546,0,0,0,6-2.3c1-1.1,2-2.1,3-3.1.6-.6,1.2-.6,1.9.1,1.8,1.8,4.5,1.2,5.6-1.2a22.448,22.448,0,0,1,1.3-2.7,1.971,1.971,0,0,1,3-.6,7.324,7.324,0,0,1,1.2,11.2c-1.6,1.5-2.6,1.4-3.8-.3a4.03366,4.03366,0,0,0-4.2-1.9c-.5.1-1.3.6-1.4,1.1-.4,1.7-.5,3.5-.8,5.3.2-.39993.3-.39993.4-.39993m-4.3-.8c0-2-.3-2.2-2.2-1.5a20.03478,20.03478,0,0,0-2.6,1c-.4.2-1.1.7-1.1,1.1a2.20273,2.20273,0,0,0,.9,1.6,5.29731,5.29731,0,0,0,1.9.5c2.5.4,3.1-.1,3.1-2.7"/><path d="M328.93767,178.43106c0-1.8-.1-3.7,0-5.5a59.01362,59.01362,0,0,1,.9-7.2,2.68516,2.68516,0,0,1,1.5-1.8,2.10712,2.10712,0,0,1,2.7,1c.8,1.2,1.6,2.6,3.4,2.2a6.033,6.033,0,0,0,1.9-.6,4.12456,4.12456,0,0,0,1.3-1c2.6-2.1,2.2-2,4.7.1a5.03174,5.03174,0,0,0,7.2-1.1c.3-.4.5-.9.8-1.3a1.32983,1.32983,0,0,1,2.3.3,8.30073,8.30073,0,0,1,.6,2.1c.5,3.8,1.2,7.6.4,11.6-.5,2.4,0,5,0,7.5a3.00141,3.00141,0,0,1-3.3,3.3c-1.7,0-3.3,0-4.7-1.4-.9-1-1-1.7,0-2.5a7.24046,7.24046,0,0,1,1.9-1.1,2.12012,2.12012,0,0,0,1.7-2.4c-.1-2.5,0-5,0-7.5,0-1.3-.6-2.1-1.7-2.2a15.35958,15.35958,0,0,0-4.8.4c-1.2.3-1.3,3-.1,3.6,1,.5,1.6,1.2,1.1,2.2s-1.1,2.2-2.5,1.9c-2.1-.4-4.1-.8-6.1-1.3-.9-.2-1.1-1.7-.3-2.3a2.01007,2.01007,0,0,1,.8-.4c.9-.3,2.1-.5,1.8-1.8a2.76494,2.76494,0,0,0-2.4-2.5c-2.9-.5-4.3.3-4.7,3.2a41.55234,41.55234,0,0,0-.3,6.1,2.77691,2.77691,0,0,0,2.1,2.9c1,.3,2.4.5,2.2,2.1a4.04911,4.04911,0,0,1-2.9,2.9,8.75166,8.75166,0,0,1-1.6.2c-3.3.1-3.8-.4-3.6-3.2.2-2.2,0-4.4,0-6.6h-.30011Z"/><path d="M326.73765,215.63108c.2.3.7,1,1.2,1.7.1.2.3.2.5.4.7.7,2,1,1.6,2.4a3.92249,3.92249,0,0,1-3.8,2.4h-.3c-4.2-.6-4.4-1.1-3.3-5.1a47.52827,47.52827,0,0,0,1.4-8.4c.3-3.6,1.8-6.7,3.2-9.9a1.87739,1.87739,0,0,1,3.2-.3,23.86263,23.86263,0,0,1,1.2,2.2c1.2,2.1,3.2,2.5,5.2,1.1a1.37956,1.37956,0,0,1,.4-.3c1.9-1.4,2.8-1.3,4.3.6a5.3488,5.3488,0,0,0,8,.4,3.30142,3.30142,0,0,1,1.8-.9c.6.7,1.3,1.5,1.2,2.3a49.06526,49.06526,0,0,1-.9,7.7c-.3,1.8-1.1,3.5-1.5,5.3-.3,1.1-.3,2.2-.6,3.2-.5,1.9-1,3.7-1.6,5.5a1.26877,1.26877,0,0,1-1.8.8,33.73891,33.73891,0,0,1-3.4-1,4.7759,4.7759,0,0,1-2.2-2c-.2-.4.7-1.4,1.2-2.1a.758.758,0,0,1,.4-.2c3.1-.1,3.8-2.2,4.2-4.6.3-1.7.6-3.3.9-5a2.351,2.351,0,0,0-1.3-2.6,5.024,5.024,0,0,0-4.6-.6c-1.8.6-2.3,2.3-1,3.6a1.84771,1.84771,0,0,1,.3,2.7c-.8,1.1-1.8,1.7-3.1,1.1a51.22438,51.22438,0,0,1-5.2-2.7,1.74319,1.74319,0,0,1-.6-1.2c0-.4.5-.7.8-1,.2-.2.6-.2.8-.3,1.8-.6,2.3-1.8,1.2-3.5-1.1-1.8-4.4-1.8-5.5-.2-1.7002,2.4-2.00024,5.1-2.30023,8.5"/><path d="M106.63768,41.73107c.4-1.1.9-2.1,1.2-3.2.3-1.2-.3-1.9-1.6-1.9-3.2-.1-5.7,1.4-7.9,3.3-.8.7-.5,2.6.4,3.5a23.39383,23.39383,0,0,1,2.5,3,2.23805,2.23805,0,0,1-.1,2.1c-1.3,2.1-6.3,2.9-8.3,1.5-1.1-.8-.6-1.7-.3-2.7.3-1.4.6-2.8.8-4.2.2-1.3-.5-2-1.8-2.3-2.1-.6-2.3-1.5-.8-3.1a5.76339,5.76339,0,0,0-.3-7.5c-.4-.3-.7-.7-1.1-1-1.1-1.1-1.1-1.7,0-2.9a15.53682,15.53682,0,0,1,7-4.3,3.27537,3.27537,0,0,1,3.8,1.2c.6.8,1.2,1.7,1.8,2.6,1.3,1.8,2.9,3.3,5.3,3.5.5,0,1,.4,1.5.5a1.70027,1.70027,0,0,1,1.3,1.9c-.1,3.4.1,3.6,3.6,3.2a5.70241,5.70241,0,0,1,1.3-.1c.9.2,2.4.2,2.6.8a2.93323,2.93323,0,0,1-.6,3.5,41.21051,41.21051,0,0,1-3.1,2.8c-2.3,1.9-4.7,1.8-7.2-.2m-8.3-7.3a1.70174,1.70174,0,0,0,.7-.1c.6-.2,1.4-.4,1.6-.8a1.64957,1.64957,0,0,0-.9-2.1c-.8-.4-1.6-1.1-2.4-1.5a4.73505,4.73505,0,0,0-1.7-.1v1.4a5.01906,5.01906,0,0,0,.2,1.2c.4,2.1.4,2.1,2.5,2"/><path d="M17.83766,114.13106a5.98405,5.98405,0,0,1,5.8,2.3,5.24148,5.24148,0,0,0,1.1,1c1.7,1.8,3.6,2.6,6,1.5a4.70709,4.70709,0,0,1,1.6-.4,2.56457,2.56457,0,0,0,2.8-2.3c.3-1.3,1.9-1.8,3.2-1.3,1.4.5,1.8,1.2,1.3,2.8a30.52129,30.52129,0,0,1-1.7,5.1q-1.5,3-4.2.9a3.63208,3.63208,0,0,0-4.5-.4c-.7.4-1.4.7-2.1,1.1-1.6.9-2.6,2.6-1.7,3.5a6.07892,6.07892,0,0,0,3.5,1.4,8.75933,8.75933,0,0,0,2.7-.6,2.75046,2.75046,0,0,1,3.3,3c-.1.8-.4,1.7-.5,2.5a2.11085,2.11085,0,0,1-1.9,2.2,5.07953,5.07953,0,0,1-2.5-.9,17.79017,17.79017,0,0,0-3-1.7,3.74687,3.74687,0,0,0-4.5,1.4c-1.3,1.7-2,1.5-3.2-.2-1.1-1.5-2-3.2-4.3-3.3a2.21684,2.21684,0,0,0-2.4,1.3c-.9,1.8-1.8,1.8-3.2.4a4.18949,4.18949,0,0,1-1.3-3.5c.4-2.3.4-4.7,1.1-6.9a41.65612,41.65612,0,0,1,3.5-7.4c.8-1.5,2.6-1.2,4.1-1.3a2.40252,2.40252,0,0,1,1-.2m-4,9.6a3.41753,3.41753,0,0,0,3.1,3.8,7.97286,7.97286,0,0,1,1.5.3c1.1.3,1.6-.1,1.8-1.1.3-1.4.5-2.7.9-4.1a2.7417,2.7417,0,0,0-1.2-3.4,3.30374,3.30374,0,0,0-3.9.1,5.3105,5.3105,0,0,0-2.2,4.4"/><path d="M281.23765,40.53107q3.45-.6,7.2-1.2c5.2-.9,8.5,0,11.1,4.7.8,1.6,1.7,2.9,3.7,3.4,1.6.4,2.3,2.6,1.5,4.1-1.6,2.8-4.4,3.8-7.4,4.2-1.5.2-2.5-1.2-2.4-2.7a8.67428,8.67428,0,0,1,.5-2.8c1.3-2.5-.4-4.1-1.5-6a.21505.21505,0,0,0-.2-.2c-1.2-.8-6.8,0-7.7,1.1a1.84509,1.84509,0,0,0-.5,1.2c-.3,1.9-.9,2.5-2.7,2.6h-.1c-1,.1-2.3-.2-2.8.4a11.13229,11.13229,0,0,0-2.2,3.8,2.40671,2.40671,0,0,0,.3,2c1.8,2.5,4.2,4.3,8,3.2a3.98672,3.98672,0,0,1,3.8,1.7.85435.85435,0,0,1,0,.7c-1.2,2.1-2.5,4.2-4.9,5.2a4.2164,4.2164,0,0,1-1.9.3,2.32612,2.32612,0,0,1-1.1-.9,3.079,3.079,0,0,1-.3-1.3c-.1-1.3-.9-1.8-2.1-2.1-4.8-1-8.6-6.9-7.2-11.7.6-2.2,2.1-4.2,3.2-6.2.1-.2.2-.3.3-.5.80011-2.3,2.20007-4.2,5.40009-3"/><path d="M146.73765,5.33106c5.7,0,9.7,4.5,8.8,8.1a9.43252,9.43252,0,0,1-1,2.3,3.94418,3.94418,0,0,0,1.8,5.6c1.1.6,2.5.7,3.7,1.2.6.2,1.4.6,1.5.9a3.61926,3.61926,0,0,1-.5,2.6,10.136,10.136,0,0,1-8.3,2.5c-.3,0-.8-.6-.8-1a10.79981,10.79981,0,0,1,.2-3.1,2.301,2.301,0,0,0-1.2-2.7c-.5-.3-1-.7-1.5-1-1.5-1-2.5-1-3.9.1-1,.8-.4,1.7-.1,2.5a13.78161,13.78161,0,0,1,1.5,4.3c.3,2.5-.8,3.4-3.2,3.6a19.21748,19.21748,0,0,1-2.4,0c-2.2-.2-3-1.7-2-3.7a8.79491,8.79491,0,0,1,.6-1c1-1.5.8-2.6-.7-3.6-.7-.5-1.5-.8-2.2-1.3-1.3-.8-1.5-1.7-.6-2.9a10.948,10.948,0,0,1,1-1.1,2.03923,2.03923,0,0,0-.4-3.2,21.09717,21.09717,0,0,1-2.3-1.9c-.7-.6-.9-1.3-.2-1.9,1.1-1,2.1-2.3,3.4-2.8,3.3-1.2,6.9-2,8.8-2.5m-.9,10.6c1.6.4,2.9-.6,4.1-2a2.31028,2.31028,0,0,0-.2-3.6c-1.9-1.7-6.3-.7-7.3,1.7-1,2.3-.1,3.9,2.5,4a1.97378,1.97378,0,0,1,.9-.1"/><path d="M38.53767,83.53107c-.1-1-.1-1.6-.2-2.3-.3-2.6-.3-2.6-2.9-2.9-.4-.1-.7-.7-1-1.1-.1-.2,0-.5,0-.7.2-2,4.5-6.1,6.5-6.3a1.73415,1.73415,0,0,1,1.8,2.5c-1.2,2.5.1,4.7.6,6.9.1.5,1.4,1,2.2,1.1,2,.3,4.1.1,6.1.7,1.9.6,3.4.8,4.8-1a1.88175,1.88175,0,0,1,2.9-.2c1,1,1.3,2.1.4,3.2a21.02005,21.02005,0,0,1-3.6,3.7c-1.5,1.1-2.7.6-4-.6a3.83944,3.83944,0,0,0-1.8-.9c-2.1-.3-4.2-.5-6.2-.8-1-.2-1.3.1-1.3,1.1a27.10707,27.10707,0,0,0,.4,4,2.69661,2.69661,0,0,0,3.9,2.1,6.88925,6.88925,0,0,0,.8-.3c2.5-.9,3.5-.2,3.3,2.5a9.49774,9.49774,0,0,1-2.9,5.9,3.58262,3.58262,0,0,1-2.7.7c-1-.1-1.5-.9-1.6-2a2.134,2.134,0,0,0-.7-1.2,39.655,39.655,0,0,0-13.4-8.3,9.06361,9.06361,0,0,0-2.3.1,6.88321,6.88321,0,0,1-2.5-.2,1.50071,1.50071,0,0,1-.3-2.5,39.19708,39.19708,0,0,1,3.7-3.4c1.9-1.5,3.5-.9,4.6,1.4a5.13368,5.13368,0,0,0,2.2,2.4c1.4.8,2.6.2,2.9-1.5a12.63921,12.63921,0,0,0,.3-2.1"/><path d="M297.33769,82.33106c.6-1.6,1.1-3.1,1.8-4.6.9-1.9,2-3.8,3-5.7a4.30406,4.30406,0,0,1,4.2-2.6,8.61547,8.61547,0,0,0,3.4-.9c3.3-1.7,8.7-1.3,11.2.7,2.6,2.1,3.1,4.7,2.4,7.8-.2.9-.6,1.8-.9,2.7-.6,2.2-1.1,4.3-1.8,6.5a3.85837,3.85837,0,0,1-1.1,1.7c-1.7,1.2-3.3,2.2-5.6,2.2-1.6,0-3.2.9-4.8,1.4-3.2,1.1-8.7-1.1-10.1-4.2-.70013-1.6-1.10016-3.3-1.70013-5m21.5-7c-.1-.1-.3-.1-.4-.2,0-1.9-.6-2.5-2.4-2.6-3.2-.2-4.7.6-5.9,3.4a5.02027,5.02027,0,0,1-4.5,3,2.48148,2.48148,0,0,0-2.4,2,4.34815,4.34815,0,0,0,2.9,5.5c2.8.9,4.6,0,5.5-2.6a2.68174,2.68174,0,0,1,2.6-2.2,2.9907,2.9907,0,0,0,2.2-.9,52.14707,52.14707,0,0,0,2.40009-5.4"/><path d="M188.63768,27.13106c-2.3-.2-4.3-1-5.5-3.1a2.48318,2.48318,0,0,1,0-1.7,13.12144,13.12144,0,0,1,2.4-2.8c1.3-.9,1.2-1.9.6-3.1a10.53945,10.53945,0,0,0-.7-1.1c-1.2-1.6-1.3-2.2.2-3.6a3.5573,3.5573,0,0,0,.5-4.5c-.7-1.1-3.7-1.7-5-1a20.70821,20.70821,0,0,0-2.4,1.7c-1.2.9-1.9.8-2.8-.4-1-1.4-2.2-3.1-.9-4.8,1.5-2,3.1-3.4,5.4-2.4,6.1,2.6,12.5,1.8,18.9,1.9,2.3,0,3.6,1.4,5.1,2.6a.51952.51952,0,0,1,.2.4c.5,1.7-1.2,5.4-2.8,6.2a2.76671,2.76671,0,0,1-3.3-.7,6.52869,6.52869,0,0,1-1.3-1.6c-.6-1-1.5-1.6-2.6-1.1-1.2.5-2.2,1.3-2.1,2.8a13.72169,13.72169,0,0,0,.7,3.4,2.30072,2.30072,0,0,1-.5,2.4c-2.8,3.1-2.8,3.1,0,6.2a1.42634,1.42634,0,0,1,.2,2c-.90009,1.7-2.50009,2.2-4.30008,2.3"/><path d="M229.13768,13.53106a2.89143,2.89143,0,0,0,1.7,2.8c.7.4,1.3,1,1.9,1.4,1.3,1,2.3,1.9,1.4,3.8-.3.7.2,2,.6,2.9.8,2,1.9,3.8.9,6.1a6.34431,6.34431,0,0,1-7.2,3.7c-1.9-.5-3.6-1-4.6-3a1.74906,1.74906,0,0,0-2.5-.8,13.17689,13.17689,0,0,1-2.6.5,1.94421,1.94421,0,0,1-2-2c-.3-2.4,1.9-5.4,4.3-6a2.80656,2.80656,0,0,1,3.6,1.6c.7,1.3,1.1,2.7,1.9,3.9,1,1.6,2.3,1.8,3.4.6a3.29246,3.29246,0,0,0,.6-1.9,4.82337,4.82337,0,0,0-2.8-4.3,10.41737,10.41737,0,0,1-1.8-1c-1.9-1.4-1.8-1.4-1.3-3.7a10.41763,10.41763,0,0,0-.2-4.3c-1.5-5.5,3.3-8.5,7.8-7.4a5.34665,5.34665,0,0,1,2.6,1.9,2.61994,2.61994,0,0,0,3.1.7,4.03765,4.03765,0,0,1,4.4,1.9c.1.2.2.5.1.6-1.2,1.3-2.1,3-3.6,3.8-1.6.9-3.6-.1-4.8-1.7a6.72792,6.72792,0,0,1-.7-1.1c-.6-1.4-1.9-1.2-3-1-.7.3-.9,1.4-1.2,2"/><path d="M325.13768,138.13106a19.27317,19.27317,0,0,0-.1-2.4c-.2-1.3.5-1.9,1.5-2.5,1.1-.6,1.5.2,2.2.7a9.11764,9.11764,0,0,0,2.1,1.5,2.75967,2.75967,0,0,0,3.3-1.1c.2-.3.6-.6.8-.9,1.3-2.1,2.5-3,5.3-1.9,3.4,1.4,5.6-.1,6.9-3.6.2-.5.7-1.3,1.1-1.3a2.22711,2.22711,0,0,1,1.7.9,41.67893,41.67893,0,0,1,2.5,6.7c1,3.6,1.6,7.3,2.6,10.9a6.19632,6.19632,0,0,1,.1,3.3c-.9,2.7-4.9,3.8-7,1.9-.8-.8-1-1.9-.1-2.4,3.6-2.1,2.1-5.2,1.8-8.1a10.92191,10.92191,0,0,0-.5-1.7,3.85655,3.85655,0,0,0-6-2.1,8.24664,8.24664,0,0,0-2.1,2.5c-.2.3.4,1.1.8,1.6.1.1.4.2.5.3.8.5,2.3.9,1.8,2a4.55064,4.55064,0,0,1-2.7,2.4,28.15867,28.15867,0,0,1-5.8.2c-1,0-1.3-.4-.9-1.3.3-.6.9-1.1,1.2-1.8a5.562,5.562,0,0,0,.6-2.1c0-.4-.8-1-1.2-1a14.65529,14.65529,0,0,0-4.2.5,2.81669,2.81669,0,0,0-1,2.1c0,1.7-1.2,2.3-2.4,2.9a1.18967,1.18967,0,0,1-1.1-.4c-.9-1-1.8-2.1-1.5-3.7a14.90429,14.90429,0,0,0-.19989-2.1h0"/><path d="M322.43767,109.03107a7.173,7.173,0,0,0-1.3.1c-1.2.3-2.3.8-2,2.4.3,1.7-.6,2.8-1.7,4-.8.9-1.6.9-2.2-.1-.8-1.5-1.4-3.1-2.1-4.7a14.46317,14.46317,0,0,1-.9-2.2,3.63218,3.63218,0,0,1,0-1.8c.6-.8,1.3-1.8,2.7-1.4a4.87663,4.87663,0,0,0,.7.3c2.6,1.2,4.4.7,5.8-1.7.4-.6.7-1.2,1.1-1.8.7-1.2,1.5-2,3.1-1.3a9.34258,9.34258,0,0,0,3.4.6,1.85416,1.85416,0,0,0,.7-.2c1.1-1.7,2.9-2.9,3-5.2,0-.6.4-1.6.7-1.6,1-.1,2.3-.4,2.9.8a82.44774,82.44774,0,0,1,4.2,7.7c1.5,3.7,2.4,7.6,3.6,11.4.3,1-.1,1.6-1.1,1.9-.9.3-1.7.6-2.5.9a2.00879,2.00879,0,0,1-2.8-.9c-.7-1-.1-1.7.6-2.3a3.411,3.411,0,0,0,.8-4.1,63.6254,63.6254,0,0,0-3-5.8c-.5-.9-3.7-1.1-4.9-.3a6.73109,6.73109,0,0,0-1.5,1.4,2.005,2.005,0,0,0,1,3.4c.9.3,1.8.5,2,1.7a1.91452,1.91452,0,0,1-1.3,2.4c-2,.7-3.9,1.4-5.9,2-.6.1-1.3-.5-2-.7.3-.5.5-1.1.8-1.6.2-.4.7-.8.8-1.2.50006-1.7-.1-2.1-2.7-2.1"/><path d="M178.13768,314.03107c-76.3,0-138.4-62.1-138.4-138.4s62.1-138.4,138.4-138.4,138.4,62.1,138.4,138.4-62.1,138.4-138.4,138.4m0-274.2c-74.9,0-135.9,61-135.9,135.9s61,135.9,135.9,135.9,135.9-61,135.9-135.9-61-135.9-135.9-135.9"/><path d="M178.13768,319.53107c-79.3,0-143.9-64.5-143.9-143.9a143.99456,143.99456,0,0,1,143.9-143.9c79.4,0,143.8,64.6,143.8,143.9s-64.5,143.9-143.8,143.9m0-286.5c-78.6,0-142.6,64-142.6,142.6s64,142.6,142.6,142.6,142.6-64,142.6-142.6-64.00006-142.6-142.6-142.6"/>
    </g>
</svg>